<svg width="158" height="158" viewBox="0 0 158 158" xmlns="http://www.w3.org/2000/svg" style="background-color:#FEFAF1">
<circle cx="79" cy="79" r="79" fill="#FEFAF1"/>
<path d="M26.6449 109.553L17.3047 114.27L16.4679 112.614L20.7096 110.471L20.6879 110.428L14.7655 109.243L13.835 107.401L18.9267 108.432L22.93 102.198L23.8533 104.026L20.7313 108.775L23.0803 109.274L25.8081 107.896L26.6449 109.553Z" fill="#3E3D3A"/>
<path d="M21.9034 97.9158C22.1067 98.5339 22.0643 99.0363 21.776 99.4231C21.4845 99.7997 21.0144 100.095 20.366 100.308L11.5507 103.208L10.9757 101.46L19.8822 98.5302C20.0949 98.4602 20.2336 98.3696 20.2981 98.2586C20.3525 98.1508 20.3647 98.0514 20.3347 97.9602C20.3214 97.9197 20.3097 97.8842 20.2997 97.8538C20.2763 97.8166 20.2478 97.7642 20.2143 97.6966L21.4464 97.0386C21.5203 97.1266 21.5991 97.2467 21.6828 97.3988C21.7632 97.5408 21.8367 97.7131 21.9034 97.9158Z" fill="#3E3D3A"/>
<path d="M20.1974 90.9522C20.3155 91.6246 20.2023 92.2131 19.8577 92.7176C19.5114 93.2117 19.002 93.5178 18.3296 93.6359C17.4996 93.7817 16.7951 93.5319 16.216 92.8864C15.6264 92.2427 15.1082 91.1424 14.6614 89.5856C14.2535 89.6681 13.9209 89.8402 13.6637 90.102C13.3941 90.3552 13.3054 90.7444 13.3977 91.2697C13.4642 91.6479 13.6032 92.0079 13.8149 92.3498C14.0248 92.6811 14.2652 93.0017 14.5362 93.3115L13.4391 94.1865C13.0903 93.8038 12.769 93.362 12.4752 92.8613C12.1796 92.3501 11.9783 91.7898 11.8713 91.1805C11.7014 90.2139 11.8639 89.4435 12.3587 88.8693C12.8411 88.2863 13.6233 87.8998 14.7054 87.7097L19.2912 86.904L19.5542 88.401L18.7254 88.6766L18.7365 88.7397C19.0915 89.0347 19.4039 89.3642 19.6737 89.7284C19.9416 90.082 20.1162 90.49 20.1974 90.9522ZM18.6767 90.6183C18.6213 90.3032 18.4979 90.0324 18.3065 89.8061C18.1028 89.5712 17.8438 89.3297 17.5294 89.0817L15.796 89.3862C16.1171 90.4128 16.4503 91.107 16.7954 91.4687C17.1301 91.8323 17.4917 91.9799 17.8804 91.9116C18.2271 91.8507 18.4608 91.7014 18.5815 91.4636C18.7022 91.2258 18.7339 90.944 18.6767 90.6183Z" fill="#3E3D3A"/>
<path d="M19.0749 82.733L11.2224 82.9689L11.1672 81.1297L19.0197 80.8938L19.0749 82.733ZM9.81921 82.0826C9.82914 82.4131 9.74119 82.6826 9.55536 82.8909C9.36953 83.0992 9.11669 83.2082 8.79683 83.2178C8.48764 83.2271 8.23404 83.1333 8.03604 82.9365C7.83804 82.7397 7.73408 82.4761 7.72415 82.1455C7.71423 81.815 7.80218 81.5456 7.988 81.3373C8.17383 81.1289 8.42134 81.0201 8.73054 81.0108C9.05039 81.0012 9.30932 81.0948 9.50732 81.2916C9.70532 81.4884 9.80928 81.7521 9.81921 82.0826Z" fill="#3E3D3A"/>
<path d="M22.2096 76.044L11.3283 74.7335L11.51 73.2244L12.3514 73.1968L12.359 73.1332C12.1232 72.7718 11.9289 72.3777 11.7762 71.9511C11.6247 71.5138 11.5745 71.0834 11.6255 70.6598C11.7428 69.6855 12.1935 68.9769 12.9774 68.5342C13.7626 68.0808 14.7588 67.9268 15.9661 68.0722C16.8556 68.1794 17.599 68.4301 18.1961 68.8243C18.7827 69.2172 19.2095 69.6877 19.4766 70.2355C19.7449 70.7728 19.844 71.3327 19.7739 71.9151C19.733 72.254 19.6181 72.584 19.429 72.905C19.2294 73.2247 18.978 73.5275 18.675 73.8133L19.9833 73.9226L22.4296 74.2172L22.2096 76.044ZM18.2188 72.1146C18.2813 71.5957 18.106 71.1341 17.6927 70.7298C17.2794 70.3254 16.6332 70.0703 15.7543 69.9645C14.9706 69.8701 14.3457 69.9291 13.8796 70.1416C13.4136 70.354 13.1448 70.7568 13.0734 71.3499C13.0071 71.9005 13.2294 72.5075 13.7404 73.1707L17.3781 73.6088C17.6456 73.3509 17.8482 73.096 17.986 72.844C18.1132 72.5907 18.1908 72.3476 18.2188 72.1146Z" fill="#3E3D3A"/>
<path d="M22.0761 61.8218C21.8661 62.516 21.523 63.0976 21.0468 63.5665C20.5605 64.0323 19.9769 64.3405 19.2961 64.4912C18.6051 64.6388 17.8461 64.5875 17.0191 64.3374C16.2024 64.0903 15.5473 63.7139 15.0539 63.208C14.5637 62.692 14.2406 62.1206 14.0847 61.494C13.9288 60.8673 13.9388 60.263 14.1149 59.6811C14.3218 58.997 14.6479 58.4716 15.0932 58.1048C15.5282 57.7349 16.0518 57.5144 16.664 57.4433C17.2659 57.369 17.9191 57.4385 18.6236 57.6516C18.9911 57.7627 19.2693 57.8747 19.4581 57.9875L18.0127 62.7657C18.7011 62.8848 19.2892 62.8008 19.7772 62.5138C20.2652 62.2268 20.6003 61.7821 20.7826 61.1798C20.8814 60.853 20.9265 60.538 20.918 60.2345C20.9024 59.9177 20.8495 59.5953 20.7593 59.2671L22.0426 59.0034C22.1694 59.4317 22.2429 59.8886 22.2633 60.374C22.2836 60.8593 22.2212 61.3419 22.0761 61.8218ZM16.8135 62.4197L17.8234 59.0811C17.2415 58.9051 16.7485 58.8953 16.3446 59.0517C15.9305 59.205 15.6462 59.5369 15.4918 60.0474C15.359 60.4864 15.4034 60.9289 15.6252 61.3749C15.8397 61.8076 16.2359 62.1558 16.8135 62.4197ZM12.977 59.3536C12.8812 59.6701 12.7121 59.8975 12.4697 60.0359C12.2272 60.1743 11.9528 60.1972 11.6465 60.1046C11.3505 60.015 11.1399 59.8454 11.0148 59.5959C10.8897 59.3463 10.875 59.0632 10.9707 58.7467C11.0665 58.4302 11.2356 58.2028 11.478 58.0644C11.7205 57.926 11.9897 57.9016 12.2858 57.9911C12.5921 58.0838 12.8078 58.2549 12.9329 58.5045C13.058 58.754 13.0727 59.0371 12.977 59.3536Z" fill="#3E3D3A"/>
<path d="M25.6558 53.1157C25.2134 53.9917 24.5363 54.5281 23.6244 54.7248C22.7125 54.9216 21.6805 54.729 20.5284 54.1473C19.7667 53.7626 19.1794 53.2928 18.7666 52.7378C18.3585 52.1733 18.1223 51.588 18.058 50.9819C17.9936 50.3758 18.0888 49.8205 18.3436 49.3158C18.5456 48.9159 18.7877 48.614 19.0699 48.41C19.3475 48.1916 19.6726 48.0093 20.0452 47.8629L18.8881 47.3502L16.3458 46.0665L17.1752 44.424L27.2586 49.5157L26.5734 50.8725L25.7587 50.6046L25.7299 50.6617C25.8572 51.0486 25.9247 51.4591 25.9325 51.8932C25.9404 52.3274 25.8481 52.7349 25.6558 53.1157ZM24.5009 52.0307C24.7653 51.507 24.7511 50.8844 24.4582 50.1629L21.1875 48.5114C20.8483 48.6388 20.5758 48.7999 20.3699 48.9947C20.164 49.1895 20.001 49.4059 19.8808 49.6439C19.6548 50.0914 19.6648 50.5804 19.9107 51.1109C20.152 51.6271 20.6392 52.0702 21.3723 52.4405C22.1245 52.8203 22.7703 52.9731 23.3096 52.8989C23.849 52.8247 24.2461 52.5353 24.5009 52.0307Z" fill="#3E3D3A"/>
<path d="M31.6493 43.5837C31.2599 44.105 30.7679 44.4964 30.1732 44.7579C29.57 45.013 28.9195 45.0996 28.2217 45.0178C27.5154 44.9297 26.8162 44.6271 26.1239 44.1101C25.4231 43.5867 24.9345 43.0021 24.658 42.3562C24.3729 41.704 24.2713 41.0557 24.3532 40.4112C24.4266 39.7604 24.6579 39.1744 25.0473 38.653C25.443 38.1232 25.9425 37.7307 26.5457 37.4756C27.1404 37.2141 27.7909 37.1275 28.4972 37.2157C29.1949 37.2975 29.8942 37.6 30.595 38.1234C31.2873 38.6404 31.7759 39.225 32.061 39.8773C32.3375 40.5231 32.439 41.1714 32.3657 41.8223C32.2838 42.4667 32.045 43.0538 31.6493 43.5837ZM30.4442 42.6837C30.7889 42.2222 30.8679 41.7154 30.6812 41.1633C30.4944 40.6111 30.0891 40.1021 29.4653 39.6361C28.8328 39.1638 28.2254 38.9165 27.643 38.8942C27.0605 38.8719 26.597 39.0915 26.2523 39.553C25.9076 40.0145 25.8287 40.5213 26.0154 41.0735C26.2085 41.6171 26.6212 42.1251 27.2537 42.5974C27.8775 43.0633 28.4775 43.3117 29.0536 43.3426C29.636 43.3648 30.0996 43.1452 30.4442 42.6837Z" fill="#3E3D3A"/>
<path d="M37.728 36.8214C37.3464 37.194 36.894 37.4941 36.3708 37.7216C35.8401 37.9416 35.3294 38.075 34.8385 38.1219L34.6296 36.6712C35.0678 36.6161 35.4687 36.5228 35.8323 36.3914C36.1959 36.26 36.519 36.0564 36.8013 35.7807C37.1066 35.4826 37.2684 35.1979 37.2868 34.9266C37.3051 34.6553 37.2211 34.4242 37.0348 34.2334C36.8783 34.0731 36.6906 34.003 36.4716 34.023C36.2528 34.0279 36.0146 34.0816 35.7569 34.1841C35.4917 34.279 35.2227 34.3852 34.9497 34.5026C34.6161 34.6495 34.2638 34.7773 33.8929 34.886C33.5222 34.9796 33.1599 34.9979 32.8061 34.9409C32.4448 34.8762 32.1114 34.6874 31.8058 34.3745C31.3215 33.8784 31.1097 33.295 31.1705 32.6244C31.2314 31.9538 31.5747 31.313 32.2005 30.702C32.5974 30.3145 33.0194 30.0367 33.4664 29.8685C33.9135 29.7004 34.3372 29.5923 34.7375 29.5443L34.9132 30.9381C34.5732 30.9868 34.2591 31.0698 33.9711 31.1871C33.6833 31.2892 33.4287 31.4483 33.2073 31.6644C32.9249 31.9402 32.7747 32.2061 32.7565 32.4624C32.7309 32.711 32.8038 32.9231 32.9752 33.0986C33.1913 33.3199 33.4697 33.3761 33.8104 33.267C34.1512 33.1579 34.5264 33.0078 34.936 32.8166C35.2849 32.6548 35.6485 32.5234 36.0269 32.4223C36.3978 32.3136 36.7677 32.2879 37.1366 32.3451C37.5132 32.3948 37.8729 32.5953 38.2156 32.9463C38.6851 33.4272 38.9005 34.0219 38.8618 34.7305C38.8157 35.4314 38.4378 36.1284 37.728 36.8214Z" fill="#3E3D3A"/>
<path d="M47.5871 28.7858L43.9619 21.8163L45.3103 21.1148L45.9186 22.0068L45.9754 21.9773C46.1063 21.5124 46.2855 21.0825 46.5129 20.6877C46.7498 20.2879 47.086 19.9748 47.5213 19.7484C48.0323 19.4826 48.4982 19.3845 48.9192 19.4541C49.3447 19.5093 49.7388 19.689 50.1015 19.9933C50.2456 19.4615 50.436 18.9837 50.6725 18.5601C50.9185 18.1316 51.2591 17.8041 51.6944 17.5776C52.4326 17.1937 53.1022 17.152 53.7034 17.4525C54.3045 17.753 54.834 18.3432 55.2918 19.2233L57.5659 23.5952L55.9193 24.4517L53.756 20.2927C53.4557 19.7154 53.1542 19.3553 52.8513 19.2122C52.5579 19.0643 52.2314 19.0838 51.8718 19.2709C51.4365 19.4973 51.0993 20.0394 50.8602 20.8972L53.3927 25.7659L51.7603 26.615L49.597 22.456C49.2967 21.8788 48.9952 21.5187 48.6923 21.3756C48.3989 21.2276 48.0677 21.2496 47.6986 21.4416C47.2633 21.668 46.9261 22.2101 46.687 23.068L49.2195 27.9367L47.5871 28.7858Z" fill="#3E3D3A"/>
<path d="M60.3014 23.0407L57.9365 15.5491L59.6912 14.9952L62.0561 22.4868L60.3014 23.0407ZM58.4073 13.9576C58.0919 14.0572 57.8087 14.0459 57.5577 13.9238C57.3066 13.8017 57.1329 13.5881 57.0366 13.2829C56.9435 12.988 56.9646 12.7184 57.1001 12.4743C57.2356 12.2302 57.461 12.0584 57.7763 11.9588C58.0916 11.8593 58.3748 11.8706 58.6259 11.9927C58.8769 12.1147 59.049 12.3233 59.1422 12.6183C59.2385 12.9234 59.2189 13.198 59.0835 13.4421C58.948 13.6863 58.7226 13.8581 58.4073 13.9576Z" fill="#3E3D3A"/>
<path d="M70.4887 20.8277C69.7729 20.9446 69.0996 20.8924 68.4691 20.6712C67.8368 20.4394 67.3032 20.051 66.8683 19.5059C66.4317 18.9504 66.1438 18.2462 66.0046 17.3935C65.867 16.5514 65.9168 15.7975 66.154 15.1319C66.4017 14.4646 66.7726 13.9231 67.2667 13.5073C67.7608 13.0916 68.3079 12.8347 68.908 12.7367C69.6133 12.6215 70.2286 12.6832 70.7539 12.9216C71.2775 13.1495 71.7059 13.5227 72.0391 14.0411C72.3707 14.549 72.5957 15.1661 72.7144 15.8925C72.7763 16.2714 72.7981 16.5705 72.7798 16.7896L67.8531 17.5942C68.0491 18.2647 68.3833 18.756 68.8557 19.0679C69.3282 19.3798 69.8749 19.4851 70.4961 19.3836C70.8329 19.3286 71.1357 19.2305 71.4045 19.0894C71.6821 18.936 71.9484 18.7466 72.2034 18.5212L73.0049 19.5576C72.676 19.8599 72.2981 20.1269 71.8712 20.3588C71.4443 20.5906 70.9835 20.7469 70.4887 20.8277ZM67.6361 16.3651L71.0785 15.8029C70.9806 15.2029 70.7725 14.7559 70.4543 14.462C70.1344 14.1576 69.7112 14.0484 69.1849 14.1343C68.7322 14.2083 68.3544 14.4429 68.0515 14.8382C67.7574 15.2213 67.6189 15.7303 67.6361 16.3651Z" fill="#3E3D3A"/>
<path d="M79.4165 20.2043C78.8832 20.2075 78.3492 20.1094 77.8147 19.9099C77.2801 19.6998 76.8199 19.4412 76.434 19.1342L77.2909 17.945C77.6445 18.2096 77.9978 18.4208 78.3507 18.5787C78.7037 18.7366 79.0775 18.8143 79.4721 18.812C79.8988 18.8094 80.2129 18.7169 80.4145 18.5343C80.6161 18.3518 80.7161 18.1272 80.7145 17.8605C80.7131 17.6365 80.6267 17.4557 80.4552 17.3181C80.2943 17.1697 80.0856 17.0429 79.8289 16.9378C79.5722 16.822 79.3049 16.7116 79.0269 16.6066C78.6848 16.4807 78.3426 16.328 78.0002 16.1488C77.6683 15.9587 77.3949 15.7204 77.1798 15.4337C76.9647 15.1363 76.8559 14.7689 76.8532 14.3316C76.8491 13.6383 77.1017 13.0714 77.6111 12.631C78.1204 12.1906 78.8124 11.9678 79.6871 11.9626C80.2417 11.9592 80.7383 12.0523 81.1768 12.2416C81.6153 12.431 81.9952 12.6474 82.3167 12.8908L81.4754 14.0159C81.1969 13.8149 80.9133 13.6566 80.6246 13.541C80.3465 13.4146 80.0528 13.3524 79.7434 13.3543C79.3488 13.3566 79.056 13.4437 78.865 13.6155C78.6739 13.7767 78.5792 13.9799 78.5806 14.2252C78.5825 14.5346 78.7439 14.7683 79.0648 14.9264C79.3858 15.0844 79.76 15.2369 80.1876 15.3836C80.551 15.5095 80.904 15.6673 81.2465 15.8573C81.5889 16.0366 81.873 16.2749 82.0988 16.5722C82.3352 16.8694 82.4549 17.2634 82.4579 17.7541C82.4619 18.426 82.204 19.0036 81.6842 19.4867C81.1644 19.9592 80.4085 20.1984 79.4165 20.2043Z" fill="#3E3D3A"/>
<path d="M88.6116 20.9369C87.7128 20.8177 87.1074 20.4737 86.7955 19.9051C86.4956 19.3273 86.401 18.6207 86.5118 17.7854L87.0042 14.0739L85.894 13.9266L86.0749 12.5626L87.2909 12.6432L87.7949 10.5473L89.3176 10.7493L89.0356 12.8747L91.0182 13.1377L90.8268 14.5811L88.8441 14.318L88.3517 18.0295C88.2311 18.9389 88.5355 19.4419 89.2651 19.5387C89.4026 19.557 89.5475 19.5601 89.6997 19.548C89.8534 19.5253 89.9859 19.4999 90.0972 19.4716L90.2356 20.8619C90.0143 20.9078 89.7626 20.939 89.4807 20.9554C89.2079 20.9838 88.9182 20.9776 88.6116 20.9369Z" fill="#3E3D3A"/>
<path d="M96.6503 22.8119C96.0253 22.631 95.4858 22.3082 95.0318 21.8437C94.5807 21.3688 94.2706 20.7905 94.1016 20.1086C93.9355 19.4164 93.9726 18.6554 94.2128 17.8255C94.4561 16.9853 94.8313 16.3221 95.3385 15.836C95.8486 15.3396 96.4197 15.0163 97.0517 14.8662C97.6867 14.7057 98.3167 14.716 98.9417 14.8969C99.577 15.0808 100.12 15.4102 100.571 15.885C101.025 16.3496 101.335 16.928 101.501 17.6201C101.67 18.3021 101.633 19.0631 101.39 19.9033C101.15 20.7332 100.775 21.3963 100.265 21.8927C99.7573 22.3788 99.1862 22.7021 98.5512 22.8625C97.9192 23.0127 97.2856 22.9958 96.6503 22.8119ZM97.0686 21.3673C97.6219 21.5274 98.124 21.423 98.5751 21.0539C99.0262 20.6847 99.3601 20.1262 99.5766 19.3782C99.7961 18.62 99.8138 17.9644 99.6296 17.4114C99.4455 16.8584 99.0768 16.5018 98.5235 16.3416C97.9702 16.1815 97.468 16.2859 97.0169 16.655C96.576 17.0271 96.2459 17.5923 96.0264 18.3505C95.8098 19.0984 95.7885 19.7474 95.9624 20.2975C96.1466 20.8505 96.5153 21.2071 97.0686 21.3673Z" fill="#3E3D3A"/>
<path d="M108.974 27.8792L114.951 18.2942L116.485 19.2509L112.751 25.2381L112.792 25.2635L117.176 23.7361L118.887 24.8028L114.913 26.0958L114.961 31.6128L113.264 30.5545L113.356 26.596L111.566 27.1388L110.508 28.8359L108.974 27.8792Z" fill="#3E3D3A"/>
<path d="M117.287 33.5969L122.499 27.7191L123.637 28.7276L123.032 29.6026L123.08 29.6451C123.569 29.6232 124.051 29.6585 124.525 29.751C124.999 29.8435 125.436 30.0666 125.835 30.4205C126.465 30.9796 126.744 31.59 126.67 32.2518C126.597 32.9136 126.231 33.6156 125.572 34.3578L122.303 38.0449L120.926 36.8241L124.037 33.3166C124.468 32.8297 124.701 32.4229 124.734 32.096C124.767 31.7691 124.62 31.4605 124.293 31.1704C124.038 30.9439 123.754 30.806 123.441 30.7568C123.143 30.7067 122.765 30.6916 122.305 30.7116L118.664 34.8177L117.287 33.5969Z" fill="#3E3D3A"/>
<path d="M122.365 43.1053C122.23 42.9399 122.124 42.785 122.048 42.6407C121.972 42.4965 121.903 42.353 121.842 42.2102L123.171 41.5614C123.201 41.6328 123.239 41.7125 123.283 41.8004C123.325 41.9033 123.377 41.992 123.438 42.0664C123.7 42.389 124.008 42.5645 124.362 42.5931C124.714 42.6367 125.083 42.5835 125.47 42.4335L125.945 42.232L130.012 34.9373L131.195 36.3889L129.063 39.8784C128.873 40.1849 128.662 40.5007 128.432 40.8259C128.217 41.1527 128.001 41.4794 127.786 41.8061L127.826 41.8558C128.168 41.7012 128.514 41.5432 128.864 41.3819C129.229 41.2222 129.579 41.0683 129.912 40.9205L133.65 39.4036L134.771 40.7807L126.608 43.7555C125.713 44.0582 124.919 44.1892 124.225 44.1486C123.524 44.1147 122.903 43.7669 122.365 43.1053Z" fill="#3E3D3A"/>
<path d="M128.466 52.2495C128.158 51.7131 127.944 51.1904 127.824 50.6813C127.709 50.1815 127.713 49.7297 127.838 49.3258C127.959 48.9366 128.218 48.6277 128.616 48.3991C129.18 48.0749 129.852 48.1196 130.631 48.5332L130.686 48.5013C130.696 48.2618 130.759 48.0288 130.875 47.8023C130.996 47.585 131.195 47.3966 131.473 47.2372C131.741 47.0831 132.024 47.0189 132.322 47.0446C132.634 47.0743 132.915 47.1464 133.166 47.2609L133.221 47.229C133.264 46.8968 133.39 46.5479 133.598 46.1822C133.811 45.8258 134.117 45.5333 134.514 45.3048C135.042 45.0019 135.557 44.8716 136.061 44.9141C136.566 44.9565 137.027 45.1281 137.446 45.4287C137.879 45.7333 138.232 46.1214 138.503 46.5931C138.609 46.778 138.691 46.9644 138.75 47.1521C138.823 47.3438 138.877 47.5223 138.91 47.6876L140.313 50.1291L139.134 50.8067L138.416 49.5582C138.351 49.7436 138.237 49.9317 138.076 50.1226C137.925 50.3082 137.729 50.4701 137.488 50.6083C136.989 50.8953 136.497 51.0242 136.013 50.9949C135.538 50.9603 135.101 50.7993 134.702 50.5119C134.303 50.2244 133.965 49.8402 133.689 49.3593C133.604 49.2113 133.53 49.0507 133.467 48.8776C133.405 48.7044 133.361 48.5206 133.335 48.3262C133.184 48.2776 133.044 48.2475 132.914 48.2359C132.79 48.2336 132.649 48.2776 132.492 48.3679C132.297 48.4795 132.19 48.6458 132.169 48.8668C132.154 49.0971 132.266 49.4203 132.505 49.8365L133.199 51.0434C133.672 51.8665 133.894 52.5632 133.865 53.1335C133.85 53.7077 133.547 54.1649 132.955 54.505C132.511 54.7601 132.024 54.8434 131.493 54.7547C130.953 54.6713 130.42 54.4179 129.894 53.9945C129.367 53.5711 128.892 52.9894 128.466 52.2495ZM134.688 48.7853C134.874 49.109 135.153 49.3174 135.527 49.4104C135.9 49.5034 136.304 49.4251 136.739 49.1753C137.164 48.9308 137.426 48.6265 137.524 48.2625C137.637 47.9023 137.598 47.5558 137.407 47.2228C137.215 46.8899 136.938 46.6742 136.574 46.5759C136.209 46.4776 135.81 46.5533 135.375 46.8031C134.941 47.0528 134.67 47.3624 134.562 47.7318C134.454 48.1012 134.496 48.4524 134.688 48.7853ZM129.65 51.9014C129.964 52.447 130.33 52.8272 130.749 53.0418C131.167 53.2565 131.52 53.2814 131.807 53.1167C132.075 52.9625 132.194 52.7525 132.164 52.4867C132.14 52.2301 132.016 51.9075 131.793 51.5191L131.259 50.5896C131.046 50.2197 130.9 49.8913 130.822 49.6044C130.352 49.4071 129.95 49.4041 129.617 49.5954C129.312 49.7708 129.166 50.0635 129.181 50.4736C129.186 50.889 129.342 51.365 129.65 51.9014Z" fill="#3E3D3A"/>
<path d="M135.222 58.9651C134.986 58.3246 134.992 57.7254 135.241 57.1674C135.493 56.6193 135.94 56.2271 136.58 55.9906C137.371 55.6988 138.109 55.8186 138.794 56.3502C139.489 56.8781 140.196 57.868 140.914 59.3198C141.3 59.1657 141.597 58.9369 141.803 58.6333C142.023 58.3361 142.04 57.9373 141.856 57.4369C141.723 57.0767 141.522 56.7473 141.252 56.4488C140.986 56.1603 140.693 55.8879 140.371 55.6316L141.294 54.5745C141.705 54.8887 142.1 55.2659 142.479 55.706C142.861 56.1561 143.159 56.6714 143.374 57.2518C143.713 58.1724 143.691 58.9594 143.307 59.6129C142.937 60.2727 142.236 60.7928 141.206 61.1734L136.838 62.786L136.311 61.3601L137.078 60.9408L137.055 60.8808C136.653 60.654 136.287 60.3856 135.957 60.0755C135.63 59.7755 135.385 59.4053 135.222 58.9651ZM136.778 59.0217C136.889 59.3218 137.059 59.5662 137.288 59.7546C137.53 59.9493 137.828 60.1406 138.182 60.3284L139.833 59.7188C139.333 58.7662 138.881 58.1428 138.477 57.8486C138.083 57.5507 137.701 57.4701 137.33 57.6068C137 57.7288 136.797 57.9175 136.721 58.173C136.645 58.4286 136.664 58.7115 136.778 59.0217Z" fill="#3E3D3A"/>
<path d="M138.952 73.2179L149.394 72.5288L149.519 74.4287L143.859 78.0733L141.71 79.2895L141.714 79.3533C142.244 79.2756 142.82 79.1841 143.444 79.0788C144.068 78.9842 144.673 78.9175 145.259 78.8789L149.793 78.5796L149.91 80.3518L139.469 81.0409L139.343 79.141L145.003 75.4963L147.152 74.2802L147.148 74.2164C146.597 74.2955 146.02 74.3816 145.417 74.4749C144.815 74.5788 144.221 74.6501 143.635 74.6887L139.069 74.99L138.952 73.2179Z" fill="#3E3D3A"/>
<path d="M139.115 84.7326L146.934 85.4855L146.789 86.9985L145.391 86.9925L145.385 87.0562C145.868 87.3813 146.223 87.7531 146.451 88.1715C146.689 88.5909 146.788 89.0077 146.748 89.4218C146.713 89.7934 146.631 90.0856 146.503 90.2983L144.941 89.8265C144.997 89.6925 145.041 89.5682 145.074 89.4534C145.106 89.3387 145.13 89.1964 145.147 89.0265C145.176 88.7186 145.086 88.383 144.874 88.0197C144.673 87.6575 144.287 87.3256 143.716 87.0242L138.938 86.5642L139.115 84.7326Z" fill="#3E3D3A"/>
<path d="M137.561 93.5797C137.634 93.2571 137.811 93.0072 138.091 92.8299C138.372 92.6527 138.689 92.6039 139.043 92.6838C139.397 92.7636 139.662 92.9438 139.839 93.2243C140.017 93.5049 140.069 93.8064 139.996 94.129C139.921 94.4619 139.744 94.7119 139.466 94.8787C139.188 95.0456 138.872 95.0891 138.518 95.0093C138.164 94.9295 137.898 94.7545 137.718 94.4844C137.538 94.2142 137.486 93.9127 137.561 93.5797Z" fill="#3E3D3A"/>
<path d="M133.722 105.495L135.061 106.181L134.024 108.202L139.976 111.253L140.83 109.588L141.855 110.113C141.712 110.603 141.612 111.043 141.555 111.434C141.508 111.829 141.497 112.213 141.522 112.586L140.895 113.81L133.177 109.854L132.265 111.634L130.927 110.948L133.722 105.495Z" fill="#3E3D3A"/>
<path d="M69.9098 50.7099H73.354C73.3594 50.5931 73.3702 50.456 73.3702 50.3177C73.3734 48.9666 73.3831 47.6164 73.3702 46.2652C73.3669 45.9395 73.4486 45.7563 73.8023 45.7359C74.4312 45.6995 75.059 45.6266 75.6879 45.6041C76.3544 45.5805 77.023 45.5987 77.7615 45.5987C77.7615 46.1184 77.7497 46.5385 77.7637 46.9585C77.8013 48.0375 77.855 49.1155 77.8927 50.1945C77.9045 50.5203 78.0227 50.6853 78.3786 50.6756C79.3181 50.6488 80.2587 50.6349 81.1994 50.6317C81.5466 50.6306 81.624 50.4581 81.6218 50.1506C81.6143 48.8251 81.6229 47.5007 81.6251 46.1752C81.6251 45.5987 81.6251 45.5848 82.198 45.5816C83.216 45.5752 84.233 45.5934 85.251 45.5859C85.6165 45.5827 85.7326 45.722 85.724 46.0906C85.7004 47.1707 85.7154 48.2518 85.7154 49.3319C85.7154 49.4862 85.7133 49.6405 85.7219 49.7948C85.7563 50.4506 85.8605 50.576 86.527 50.6049C87.4268 50.6435 88.3287 50.6424 89.2285 50.6671C89.5015 50.6746 89.4628 50.4903 89.4661 50.3274C89.494 48.9387 89.522 47.55 89.5467 46.1613C89.5564 45.6352 89.551 45.6202 90.0691 45.6052C91.1388 45.5752 92.2105 45.572 93.2802 45.5387C93.6575 45.5269 93.7704 45.692 93.7704 46.0434C93.7704 48.1522 93.7897 50.261 93.7908 52.3697C93.7908 52.9194 93.7725 52.9333 93.1974 52.9537C92.0633 52.9955 90.9281 53.0394 89.7939 53.0491C82.2335 53.1166 74.672 53.1766 67.1115 53.2355C66.6729 53.2387 66.2354 53.2044 65.7968 53.1916C65.57 53.1852 65.4432 53.108 65.4421 52.8487C65.4313 50.5588 65.413 48.2701 65.3926 45.9802C65.3905 45.7713 65.4625 45.6684 65.6807 45.6705C66.8793 45.6802 68.079 45.6673 69.2777 45.7016C69.8195 45.7177 69.8291 45.7584 69.841 46.292C69.87 47.5639 69.8883 48.8369 69.9098 50.1088C69.913 50.2867 69.9098 50.4635 69.9098 50.7078V50.7099Z" fill="#3E3D3A"/>
<path d="M51.6823 107.518C51.8489 107.592 52.0908 107.619 52.1703 107.746C53.3679 109.657 55.1212 110.921 57.0766 111.935C58.8557 112.857 60.7875 113.3 62.7558 113.598C65.3594 113.991 67.9824 114.155 70.6119 114.221C74.0411 114.308 77.4725 114.433 80.9017 114.409C83.7236 114.39 86.5476 114.234 89.363 114.037C92.0709 113.847 94.7907 113.634 97.4309 112.966C99.0595 112.553 100.698 112.083 102.229 111.405C104.018 110.614 105.584 109.439 106.668 107.74C106.864 107.432 107.115 107.161 107.342 106.873L107.478 106.93C107.44 107.169 107.414 107.412 107.362 107.648C107.172 108.489 106.778 109.236 106.282 109.933C104.196 112.87 101.362 114.792 97.9275 115.772C96.229 116.256 94.4585 116.508 92.7084 116.791C89.4447 117.318 86.1402 117.396 82.8464 117.545C80.9028 117.633 78.9517 117.562 77.0038 117.53C75.0828 117.498 73.1618 117.419 71.2407 117.371C68.3264 117.297 65.4358 117.033 62.5731 116.447C60.0146 115.923 57.6872 114.937 55.6587 113.286C53.9677 111.91 52.51 110.355 51.8102 108.228C51.7436 108.025 51.678 107.821 51.6113 107.619L51.6823 107.521V107.518Z" fill="#3E3D3A"/>
<path d="M110.463 107.008C110.36 108.826 109.921 110.564 109.325 112.285C108.402 114.944 107.04 117.356 105.267 119.512C104.588 120.337 103.628 120.953 102.735 121.575C100.284 123.287 97.5117 124.251 94.5898 124.734C92.2807 125.117 89.9501 125.415 87.6174 125.589C84.9568 125.789 82.2844 125.824 79.6162 125.905C77.9145 125.958 76.2085 126.034 74.5089 125.973C72.5148 125.901 70.5261 125.692 68.5341 125.541C66.0078 125.35 63.544 124.808 61.0973 124.192C58.6001 123.563 56.5135 122.203 54.6215 120.493C53.5035 119.483 52.6328 118.308 51.9684 116.969C51.3696 115.761 50.6526 114.594 50.2022 113.334C49.5948 111.636 49.1906 109.866 48.7069 108.124C48.6639 107.969 48.6703 107.799 48.6553 107.652C48.7047 107.619 48.7241 107.595 48.7466 107.592C49.5916 107.468 49.5862 107.469 49.8539 108.277C50.4236 109.993 50.8945 111.751 51.5932 113.414C52.9467 116.637 55.0461 119.273 58.1496 121.028C59.775 121.947 61.5488 122.421 63.3612 122.774C64.9898 123.093 66.6206 123.407 68.26 123.653C69.4554 123.833 70.669 123.901 71.8741 124.02C74.9636 124.327 78.0618 124.17 81.1556 124.15C84.1333 124.131 87.1046 123.917 90.0641 123.556C94.0599 123.069 97.8868 122.021 101.502 120.238C102.614 119.689 103.563 118.946 104.387 118.013C106.701 115.396 108.121 112.34 108.981 108.993C109.096 108.547 109.227 108.103 109.355 107.659C109.548 106.987 109.738 106.875 110.466 107.008H110.463Z" fill="#3E3D3A"/>
<path d="M88.8857 106.485V102.846C97.9888 102.704 107.073 102.331 116.222 102.535V106.246C107.114 106.325 98.0254 106.405 88.8857 106.484V106.485Z" fill="#3E3D3A"/>
<path d="M43.0929 106.891C43.0348 105.676 42.9789 104.498 42.9209 103.272C52.125 102.941 61.3033 103.029 70.5171 102.947C70.5171 103.821 70.5203 104.652 70.516 105.482C70.515 105.752 70.4752 106.022 70.4881 106.291C70.5021 106.592 70.3935 106.685 70.0871 106.684C68.165 106.68 66.2418 106.689 64.3198 106.706C57.5591 106.765 50.7995 106.829 44.0389 106.891C43.7336 106.894 43.4283 106.891 43.094 106.891H43.0929Z" fill="#3E3D3A"/>
<path d="M50.272 107.617C50.8331 107.41 50.874 107.442 51.0481 107.91C51.4308 108.943 51.7931 109.986 52.2349 110.993C53.3895 113.628 55.4062 115.49 57.8012 116.983C59.4858 118.032 61.2874 118.869 63.2536 119.165C65.8358 119.556 68.4297 119.901 71.0538 119.946C73.0769 119.98 75.0979 120.164 77.1221 120.203C78.8744 120.236 80.6298 120.176 82.3832 120.126C83.6979 120.087 85.0104 120.001 86.3241 119.932C89.7598 119.748 93.1933 119.545 96.5344 118.618C98.5844 118.05 100.531 117.219 102.302 116.06C104.698 114.491 106.385 112.317 107.357 109.612C107.669 108.744 107.991 107.878 108.317 106.984C108.463 107.006 108.61 107.028 108.843 107.064C108.752 107.583 108.722 108.102 108.565 108.579C107.969 110.392 107.216 112.134 106.074 113.685C104.239 116.179 101.906 118.019 99.023 119.21C97.375 119.892 95.6475 120.188 93.9394 120.612C92.5505 120.957 91.1444 121.056 89.7404 121.199C85.0513 121.679 80.345 121.782 75.6365 121.734C72.9813 121.706 70.3249 121.612 67.6858 121.274C64.7618 120.9 61.912 120.22 59.1837 119.098C57.5303 118.419 56.1436 117.324 54.8644 116.089C52.4392 113.752 51.0632 110.857 50.272 107.617Z" fill="#3E3D3A"/>
<path d="M71.0948 71.8918H88.1185V81.6642C87.9938 81.6695 87.868 81.6802 87.7422 81.6813C82.6338 81.706 77.5244 81.7306 72.416 81.7542C72.1838 81.7553 71.9473 81.7327 71.7205 81.767C71.3421 81.8238 71.2292 81.6631 71.2238 81.3084C71.1884 79.1868 71.1325 77.0663 71.097 74.9446C71.0809 73.9556 71.0938 72.9666 71.0938 71.8918H71.0948ZM79.4185 74.3317C79.3379 73.9717 79.2401 73.617 79.1799 73.2559C79.0476 72.4555 78.4166 72.2487 77.8888 72.2079C77.246 72.1576 76.6655 72.6248 76.659 73.228C76.6278 75.7601 76.6203 78.2931 76.5988 80.8252C76.5967 81.0716 76.6999 81.1777 76.9428 81.1745C78.6671 81.1509 80.3914 81.1198 82.1168 81.1166C82.5414 81.1166 82.6457 80.9227 82.6371 80.5551C82.5779 78.1271 82.5382 75.6979 82.4629 73.2698C82.4425 72.6066 82.0791 72.2905 81.4406 72.2465C80.7408 72.1983 80.2989 72.4962 80.1441 73.1273C80.1044 73.2891 80.071 73.4541 80.0538 73.6191C80.0151 73.991 79.8259 74.2278 79.4185 74.3317ZM72.1322 75.4547L72.2107 75.5672C72.7482 75.4665 73.2857 75.2897 73.8232 75.2875C74.3531 75.2854 74.8842 75.46 75.5174 75.5758C75.182 74.4892 75.1357 73.5024 75.455 72.4051C74.3209 72.5819 73.2846 72.7866 72.2279 72.3826C72.2977 72.8476 72.4353 73.242 72.5246 73.6459C72.5708 73.8549 72.574 74.0928 72.5213 74.2985C72.4203 74.6917 72.2644 75.07 72.1311 75.4547H72.1322ZM86.9521 72.2937C85.876 72.7287 84.8806 72.658 83.855 72.3001C84.0926 73.3995 84.1775 74.4474 83.8453 75.5875C84.4785 75.4215 84.9924 75.1814 85.5062 75.1814C86.0136 75.1814 86.521 75.4247 87.0284 75.5608L87.123 75.4707C86.6081 74.4753 86.8392 73.4381 86.9521 72.2947V72.2937ZM83.8195 77.9256C83.8905 78.2267 83.9152 78.4153 83.9797 78.59C84.1872 79.1536 84.2076 79.7076 84.0001 80.2808C83.9281 80.4812 83.9496 80.7148 83.9292 80.9334C84.1786 80.9312 84.4291 80.9334 84.6785 80.9248C84.7397 80.9227 84.8032 80.8916 84.8601 80.8627C85.2332 80.6773 85.5976 80.7116 85.9771 80.8605C86.291 80.9827 86.621 81.0609 87.065 81.1959C86.7403 80.0462 86.7908 78.9971 87.0918 77.8313C85.9728 78.2106 84.9472 78.2374 83.8185 77.9256H83.8195ZM75.4249 77.9181C74.824 78.0896 74.3488 78.3242 73.8683 78.336C73.391 78.3478 72.9083 78.1367 72.4074 78.0188C72.2472 78.4925 72.3612 78.9039 72.588 79.2618C72.7503 79.5179 72.7052 79.7119 72.6245 79.9669C72.4977 80.3687 72.43 80.7898 72.3375 81.2034C72.3762 81.2431 72.4149 81.2838 72.4536 81.3234C73.4254 80.8091 74.423 80.9891 75.5432 81.2109C75.1981 80.0922 75.2303 79.055 75.426 77.9181H75.4249Z" fill="#3E3D3A"/>
<path d="M88.0129 57.9245C88.0269 58.0981 88.0441 58.2106 88.0451 58.3242C88.0527 61.2301 88.058 64.1361 88.0677 67.0421C88.0677 67.2778 88 67.3968 87.742 67.4043C87.2271 67.4182 86.7132 67.4761 86.1983 67.4793C81.6177 67.5147 77.0372 67.5414 72.4566 67.5736C72.1212 67.5757 71.7837 67.5736 71.4515 67.6143C71.1709 67.6497 71.0699 67.5211 71.0538 67.2843C71.0301 66.9382 71.0065 66.5899 71.0108 66.2438C71.0462 63.7868 71.0882 61.3309 71.1312 58.8739C71.1462 58.0284 71.1516 58.0263 71.9879 58.0209C77.1361 57.9877 82.2853 57.9566 87.4335 57.9245C87.613 57.9234 87.7925 57.9245 88.0129 57.9245ZM76.6007 66.9371C76.6459 66.9596 76.6685 66.98 76.691 66.98C78.5734 66.9639 80.4567 66.9425 82.3391 66.9307C82.61 66.9285 82.6487 66.7935 82.6454 66.5653C82.6164 64.4822 82.6089 62.3992 82.5637 60.3172C82.5541 59.8629 82.4724 59.3893 82.3143 58.9649C82.2262 58.7281 81.9445 58.4817 81.6973 58.4013C80.9416 58.1559 80.1633 58.7035 80.0622 59.4878C80.0353 59.6914 80.0138 59.8961 79.9794 60.0986C79.9246 60.4158 79.6441 60.3397 79.4527 60.3494C79.3656 60.3536 79.2194 60.1929 79.1861 60.0815C79.1033 59.8007 79.0947 59.4975 79.0098 59.2178C78.8625 58.7356 78.1606 58.3102 77.6639 58.3681C77.1716 58.426 76.6975 58.9371 76.6437 59.4793C76.6147 59.7729 76.5878 60.0686 76.5868 60.3644C76.5792 62.4603 76.5792 64.5562 76.5782 66.6521C76.5782 66.7517 76.5943 66.8503 76.6018 66.9371H76.6007ZM75.4268 58.517C75.0603 58.6038 74.8055 58.6413 74.5658 58.7238C74.0487 58.9017 73.5467 58.9189 73.0199 58.7431C72.8082 58.6724 72.5534 58.7271 72.319 58.7249C72.333 58.9414 72.2986 59.176 72.3685 59.3721C72.5383 59.8489 72.5824 60.2968 72.3921 60.7876C72.2879 61.0555 72.3244 61.378 72.2922 61.737C72.8813 61.5977 73.3758 61.3919 73.8724 61.3866C74.3658 61.3802 74.8614 61.5741 75.4989 61.7102C75.0818 60.6087 75.228 59.6089 75.4258 58.516L75.4268 58.517ZM72.1546 63.8275C72.2201 64.1276 72.2287 64.314 72.3008 64.4715C72.5846 65.0898 72.6351 65.6695 72.1933 66.2556C72.1169 66.3574 72.2287 66.6381 72.3158 66.8032C72.3502 66.8685 72.5727 66.8889 72.6835 66.8514C73.3392 66.6264 73.9939 66.6392 74.6647 66.7721C74.9033 66.8192 75.1602 66.7796 75.4569 66.7796C75.3935 66.5031 75.386 66.2588 75.2828 66.0638C75.0108 65.5527 74.9399 65.0651 75.2914 64.5658C75.3258 64.5165 75.3312 64.4437 75.343 64.3815C75.4215 63.969 75.2495 63.789 74.842 63.8682C74.6786 63.9004 74.5109 63.94 74.3626 64.0129C73.9778 64.2026 73.6004 64.1779 73.2016 64.0547C72.8909 63.9583 72.5641 63.9133 72.1546 63.8275ZM87.1314 61.5591C86.9605 60.9494 86.7315 60.4747 86.7186 59.9936C86.7057 59.5082 86.9067 59.0174 87.0142 58.5299L86.9304 58.4292C85.8919 58.8803 84.8513 58.7924 83.7667 58.4142C83.8011 58.5931 83.7989 58.6606 83.8269 58.7121C84.1537 59.3153 84.2149 59.9304 84.0311 60.6022C83.943 60.9226 84.0161 61.288 84.0161 61.692C84.3052 61.5773 84.5095 61.5066 84.7062 61.4155C85.1169 61.2259 85.5189 61.1723 85.9661 61.3309C86.295 61.4477 86.6573 61.4702 87.1314 61.5591ZM83.9193 63.7718L83.7925 63.8511C83.9215 64.2422 84.0677 64.628 84.1741 65.0255C84.2214 65.2034 84.2268 65.4102 84.187 65.5891C84.0967 65.9899 83.9655 66.3821 83.8516 66.7774C83.8817 66.8192 83.9118 66.8621 83.9419 66.9039C84.9739 66.4013 86.0295 66.5396 87.1357 66.7282C86.5455 65.7273 86.7917 64.7094 86.9476 63.6186C85.8801 63.9711 84.9029 63.9915 83.9193 63.7718Z" fill="#3E3D3A"/>
<path d="M53.8452 112.464C54.0688 112.632 54.3085 112.783 54.5138 112.972C56.3241 114.633 58.4806 115.664 60.7832 116.445C62.7709 117.119 64.8263 117.43 66.8978 117.699C69.9035 118.087 72.9221 117.989 75.9374 118.009C78.6077 118.027 81.2791 118.048 83.9494 117.99C87.8806 117.905 91.8 117.646 95.6636 116.843C98.1307 116.331 100.469 115.465 102.619 114.169C103.5 113.637 104.238 112.866 105.035 112.197C105.258 112.011 105.462 111.803 105.675 111.606L105.76 111.673C105.484 112.084 105.224 112.505 104.93 112.902C103.654 114.629 101.967 115.845 100.074 116.823C98.1038 117.841 95.9947 118.398 93.8243 118.723C91.928 119.007 90.0198 119.227 88.1107 119.402C86.7895 119.523 85.4576 119.551 84.13 119.568C81.7445 119.599 79.358 119.587 76.9726 119.602C75.8632 119.609 74.7549 119.667 73.6466 119.652C69.8357 119.6 66.0668 119.163 62.3419 118.354C60.0544 117.857 58.0871 116.748 56.3392 115.235C55.6393 114.63 54.9879 113.966 54.3354 113.311C54.1118 113.087 53.9495 112.802 53.7603 112.546L53.8463 112.465L53.8452 112.464Z" fill="#3E3D3A"/>
<path d="M105.921 114.916C104.955 116.716 103.587 118.151 101.964 119.381C100.203 120.715 98.1564 121.34 96.0752 121.894C94.0445 122.435 91.9741 122.773 89.8843 122.982C88.1159 123.159 86.3411 123.275 84.5728 123.451C80.9812 123.806 77.3853 123.712 73.7927 123.528C71.6459 123.417 69.5002 123.227 67.3664 122.965C65.4142 122.726 63.4889 122.322 61.6066 121.717C60.4165 121.334 59.2158 121.003 58.1386 120.343C56.238 119.179 54.7223 117.619 53.4323 115.826C53.2646 115.593 53.1463 115.325 53.0786 115.023C53.2839 115.248 53.4903 115.472 53.6935 115.699C55.4511 117.665 57.5764 119.088 60.0371 120.045C62.2515 120.907 64.5606 121.309 66.8977 121.643C69.3024 121.987 71.7169 122.154 74.141 122.168C76.8736 122.184 79.6084 122.154 82.3411 122.098C83.9514 122.065 85.5617 121.966 87.1689 121.855C91.2635 121.572 95.3184 121.082 99.1776 119.556C101.783 118.525 104.128 117.134 105.922 114.916H105.921Z" fill="#3E3D3A"/>
<path d="M86.5574 95.4783C86.5574 98.1271 86.5521 100.776 86.5639 103.425C86.565 103.775 86.4747 103.955 86.1006 103.942C85.1116 103.906 84.1215 103.884 83.1336 103.833C83.0605 103.829 82.9444 103.644 82.9379 103.537C82.9089 103.05 82.91 102.561 82.9025 102.073C82.8466 98.679 82.7842 95.2854 82.7423 91.8919C82.7315 91.0315 82.7423 90.1668 82.8186 89.3106C82.9078 88.3034 83.4238 87.5405 84.3892 87.159C84.8041 86.995 85.2503 86.8933 85.6921 86.8204C86.3382 86.7132 86.5112 86.8879 86.5134 87.533C86.5166 88.9988 86.5241 90.4646 86.5273 91.9305C86.5295 93.1135 86.5273 94.2954 86.5273 95.4783H86.5564H86.5574Z" fill="#3E3D3A"/>
<path d="M72.8716 103.886V87.114C75.0753 86.7775 76.332 87.6251 76.3986 89.8839C76.4932 93.0845 76.4513 96.2895 76.4588 99.4933C76.4621 100.869 76.433 102.245 76.4384 103.622C76.4395 103.911 76.3438 104.027 76.0643 104.079C74.999 104.282 73.9659 104.076 72.8716 103.887V103.886Z" fill="#3E3D3A"/>
<path d="M71.1944 86.0307C71.5008 86.0071 71.7567 85.9728 72.0125 85.9696C74.399 85.9342 76.7855 85.8989 79.1731 85.8732C81.7014 85.8464 84.2288 85.8292 86.7572 85.8142C87.0141 85.8132 87.271 85.8453 87.5279 85.871C88.1181 85.9278 88.1213 85.93 88.1235 86.5354C88.1493 92.1052 88.174 97.675 88.1966 103.244C88.1998 103.912 88.1933 103.912 87.5161 103.91C87.4398 103.91 87.3624 103.903 87.2258 103.894C87.2258 103.729 87.2258 103.567 87.2258 103.405C87.2205 98.4143 87.2173 93.4231 87.2076 88.432C87.2076 87.9048 87.1528 87.3787 87.1495 86.8515C87.1484 86.5814 87.0184 86.4914 86.7797 86.4657C85.1715 86.2868 83.7472 86.5761 82.7689 88.0151C82.7205 88.0869 82.656 88.1491 82.5776 88.2412C81.7917 87.3444 81.0489 86.4196 79.674 86.5289C78.4012 86.6297 77.467 87.2319 76.8242 88.3688C76.6737 88.1748 76.5694 88.0484 76.4727 87.9144C75.5256 86.605 74.1507 86.4646 72.7005 86.5547C72.3941 86.5739 72.3296 86.8504 72.3253 87.1033C72.2963 88.7491 72.2555 90.395 72.2576 92.0409C72.2608 94.7293 72.3028 97.4167 72.3071 100.105C72.3092 101.275 72.2415 102.444 72.2393 103.614C72.2393 103.992 72.1157 104.124 71.7513 104.073C71.6137 104.054 71.4707 104.07 71.2826 104.07C71.2525 103.694 71.1998 103.34 71.1987 102.987C71.188 99.9777 71.1826 96.9678 71.1826 93.9589C71.1826 91.489 71.1901 89.0192 71.1934 86.5493C71.1934 86.3971 71.1934 86.2439 71.1934 86.0318L71.1944 86.0307Z" fill="#3E3D3A"/>
<path d="M109.566 89.4177H116.046C116.305 91.3165 116.115 93.1895 116.205 95.0957C115.283 95.1568 114.402 95.2522 113.519 95.2651C112.321 95.2822 111.12 95.234 109.921 95.2158C109.725 95.2125 109.564 95.1943 109.564 94.9339C109.569 93.122 109.567 91.31 109.567 89.4188L109.566 89.4177Z" fill="#3E3D3A"/>
<path d="M49.4173 90.0478V95.8147C48.4992 95.8608 47.579 95.9465 46.6588 95.9444C45.5387 95.9412 44.4175 95.8619 43.2973 95.8212C43.1017 95.8137 42.9447 95.8105 42.9458 95.5426C42.9533 93.7821 42.9501 92.0205 42.9533 90.2589C42.9533 90.2096 42.9759 90.1603 43.0028 90.0478H49.4173Z" fill="#3E3D3A"/>
<path d="M88.1904 104.635C88.1904 105.181 88.1968 105.744 88.1818 106.306C88.1796 106.37 88.0689 106.463 87.9915 106.486C87.8711 106.523 87.7367 106.52 87.6077 106.52C82.2801 106.551 76.9524 106.58 71.6236 106.608C71.5226 106.608 71.4226 106.592 71.2936 106.58C71.2646 105.942 71.2377 105.319 71.2065 104.635H88.1904Z" fill="#3E3D3A"/>
<path d="M60.4167 89.9535C60.4716 91.879 60.5242 93.736 60.578 95.6379C58.5753 95.6872 56.6242 95.7344 54.6816 95.7815V89.9535H60.4167Z" fill="#3E3D3A"/>
<path d="M98.7681 89.7649C99.2808 89.7392 99.7538 89.7071 100.228 89.6931C101.477 89.6556 102.727 89.632 103.975 89.5892C104.246 89.5795 104.333 89.6706 104.332 89.9374C104.327 91.6208 104.329 93.3031 104.342 94.9865C104.344 95.2908 104.231 95.3936 103.936 95.3915C102.324 95.384 100.714 95.3872 99.1024 95.3894C98.896 95.3894 98.7627 95.3497 98.7627 95.0936C98.7702 93.3342 98.7659 91.5737 98.7659 89.7649H98.7681Z" fill="#3E3D3A"/>
<path d="M103.458 66.4367C103.833 66.4367 104.144 66.4078 104.445 66.4517C104.561 66.4689 104.709 66.636 104.746 66.7625C105.114 68.0033 105.471 69.2484 105.814 70.4967C107.452 76.4555 109.086 82.4153 110.72 88.3741C110.757 88.508 110.781 88.6441 110.823 88.8295C110.415 88.8627 110.036 88.9184 109.66 88.9066C109.564 88.9034 109.428 88.702 109.391 88.5691C108.978 87.0872 108.582 85.601 108.175 84.1169C107.663 82.2503 107.134 80.388 106.632 78.5182C105.664 74.9157 104.71 71.31 103.753 67.7043C103.649 67.31 103.568 66.9093 103.46 66.4356L103.458 66.4367Z" fill="#3E3D3A"/>
<path d="M55.3232 66.8235C55.1652 67.5672 55.0448 68.2605 54.8706 68.9398C53.6129 73.8463 52.3401 78.7486 51.0834 83.6551C50.6352 85.406 50.1976 87.1611 49.7977 88.9238C49.6967 89.3674 49.472 89.4831 49.0829 89.4756C48.8528 89.4713 48.6228 89.4756 48.3271 89.4756C48.5174 88.747 48.7109 88.0355 48.8904 87.3197C50.5739 80.6173 52.2573 73.9149 53.9343 67.2114C54.002 66.9393 54.102 66.7839 54.4181 66.8182C54.6847 66.8471 54.9556 66.8246 55.3221 66.8246L55.3232 66.8235Z" fill="#3E3D3A"/>
<path d="M109.762 63.1129C109.783 63.205 109.799 63.2532 109.804 63.3025C109.974 64.8262 109.829 64.7662 108.594 64.7823C107.331 64.7984 106.067 64.8112 104.803 64.838C101.053 64.9152 97.3032 64.9998 93.5525 65.078C93.0451 65.0887 93.0397 65.078 93.0322 64.568C93.0279 64.2465 93.0397 63.9251 93.0322 63.6036C93.0268 63.3636 93.1214 63.2607 93.373 63.2564C94.5716 63.235 95.7692 63.1814 96.9678 63.175C98.9146 63.1643 100.862 63.1943 102.809 63.1846C104.988 63.1739 107.166 63.1386 109.345 63.1139C109.473 63.1129 109.601 63.1139 109.761 63.1139L109.762 63.1129Z" fill="#3E3D3A"/>
<path d="M69.4884 56.5026C69.4884 56.1436 69.4573 55.9101 69.496 55.6872C69.5572 55.3282 69.7518 55.0828 70.1646 55.0721C70.5763 55.0614 70.987 55.0143 71.3987 55.01C76.6361 54.9553 81.8735 54.9039 87.1098 54.8535C87.6118 54.8492 88.1181 54.816 88.6158 54.8685C89.3049 54.9403 89.6037 55.6025 89.2243 56.1812C89.1598 56.2797 88.9598 56.328 88.8201 56.3322C87.9945 56.359 87.1689 56.373 86.3433 56.3772C82.125 56.3997 77.9067 56.4147 73.6884 56.4437C73.1488 56.4469 72.6091 56.5423 72.0684 56.5465C71.2235 56.554 70.3785 56.5198 69.4884 56.5026Z" fill="#3E3D3A"/>
<path d="M66.1476 65.2334C65.3661 65.2334 64.6609 65.2302 63.9557 65.2334C59.2236 65.2613 54.4925 65.2859 49.7604 65.3255C49.3938 65.3288 49.2508 65.2345 49.2788 64.8594C49.3067 64.478 49.2852 64.0933 49.2852 63.6486C54.8741 63.6057 60.4351 63.5629 66.0337 63.52C66.0724 64.0997 66.1057 64.5937 66.1487 65.2323L66.1476 65.2334Z" fill="#3E3D3A"/>
<path d="M79.6785 68.9023C82.6713 68.9023 85.6641 68.8991 88.6569 68.9087C88.8611 68.9087 89.2234 68.9741 89.2384 69.0588C89.2922 69.3491 89.2417 69.6652 89.1868 69.9642C89.1761 70.0263 88.9794 70.0896 88.8665 70.0928C86.3532 70.1764 83.8409 70.2739 81.3276 70.3221C78.5938 70.3746 75.8591 70.3907 73.1253 70.4014C72.1847 70.4046 71.243 70.3499 70.3024 70.3124C69.8821 70.2964 69.6295 70.1003 69.5897 69.7467C69.5478 69.3781 69.7907 69.1809 70.096 69.0609C70.2358 69.0062 70.3959 68.9805 70.5464 68.9795C73.5908 68.9752 76.6352 68.9762 79.6785 68.9762V68.9023Z" fill="#3E3D3A"/>
<path d="M99.0281 66.5021C98.7207 67.9433 98.4767 69.3063 98.137 70.6457C97.1555 74.5096 96.1289 78.3618 95.1334 82.2225C94.5895 84.3323 94.0746 86.4507 93.5467 88.5648C93.4514 88.947 93.2063 89.1467 92.8115 89.1638C92.6459 89.1703 92.4793 89.1638 92.2363 89.1638C92.3041 88.7963 92.3449 88.4609 92.4277 88.1352C94.0939 81.6396 95.7645 75.1461 97.435 68.6516C97.5758 68.1051 97.7306 67.5618 97.8467 67.01C97.9123 66.6982 98.0413 66.5332 98.3799 66.5546C98.5541 66.5653 98.7325 66.5278 99.0281 66.501V66.5021Z" fill="#3E3D3A"/>
<path d="M59.6705 66.7496C60.0457 66.7496 60.3574 66.7175 60.6552 66.7668C60.7649 66.785 60.8885 66.98 60.9272 67.1161C61.4937 69.1156 62.0656 71.1129 62.5988 73.1209C63.9931 78.3768 65.3691 83.638 66.7526 88.897C66.7838 89.017 66.8053 89.1392 66.8375 89.2956C66.4838 89.3481 66.171 89.3942 65.7722 89.4531C63.7372 81.8807 61.7087 74.335 59.6694 66.7507L59.6705 66.7496Z" fill="#3E3D3A"/>
<path d="M65.7801 95.6808C65.7801 94.8515 65.7833 94.0189 65.7801 93.1863C65.7747 92.2348 65.7607 91.2843 65.7543 90.3328C65.7543 90.1753 65.7005 89.9781 65.9736 89.9781C67.4517 89.9803 68.9309 89.9781 70.4251 89.9781C70.4423 90.0692 70.4617 90.1292 70.4628 90.1903C70.4896 91.8994 70.5144 93.6085 70.5402 95.3176C70.5434 95.5062 70.5552 95.6819 70.28 95.6819C68.8245 95.6776 67.37 95.6797 65.7801 95.6797V95.6808Z" fill="#3E3D3A"/>
<path d="M79.4109 84.5455C76.4966 84.5455 73.5812 84.5455 70.6669 84.5455C70.525 84.5455 70.383 84.5498 70.2412 84.5413C69.5435 84.4984 69.2618 84.0108 69.5929 83.3979C69.6327 83.3251 69.7778 83.2747 69.8757 83.2715C70.7647 83.2372 71.6537 83.2008 72.5438 83.1922C76.8513 83.1515 81.1599 83.1151 85.4674 83.085C86.5886 83.0775 87.7087 83.0958 88.83 83.1129C89.2589 83.1193 89.4169 83.2726 89.4309 83.6508C89.4427 83.9787 89.3105 84.2144 88.959 84.2337C88.1237 84.2787 87.2874 84.3162 86.451 84.3366C84.1054 84.3934 81.7587 84.4405 79.4119 84.492V84.5455H79.4109Z" fill="#3E3D3A"/>
<path d="M88.9072 95.4365V89.7692H93.2104C93.2599 91.638 93.3093 93.5067 93.3609 95.4365H88.9072Z" fill="#3E3D3A"/>
<path d="M65.4283 54.5331C65.4079 54.4217 65.3961 54.3842 65.395 54.3467C65.3835 53.9181 65.5874 53.7023 66.0067 53.6995C74.1992 53.6641 82.3907 53.6309 90.5832 53.5934C91.4604 53.5891 92.3376 53.5591 93.2148 53.5484C93.7974 53.5409 93.7974 53.5452 93.7351 54.2149C93.5093 54.232 93.2718 54.2652 93.0331 54.2674C87.241 54.3295 81.449 54.3906 75.658 54.4485C72.5362 54.4795 69.4144 54.5053 66.2926 54.532C66.011 54.5342 65.7293 54.532 65.4294 54.532L65.4283 54.5331Z" fill="#3E3D3A"/>
<path d="M60.5093 72.193C60.8705 73.0031 61.0124 73.7071 60.4577 74.4753C57.2994 78.8461 54.17 83.2372 51.03 87.6208C50.9128 87.7837 50.787 87.9412 50.6226 88.0805C50.7043 86.8654 50.9289 85.6996 51.6341 84.6784C52.5328 83.3765 53.4272 82.0703 54.3506 80.7856C56.0986 78.35 57.868 75.9305 59.6235 73.5003C59.917 73.0941 60.1868 72.6709 60.5093 72.1941V72.193Z" fill="#3E3D3A"/>
<path d="M104.17 71.8619C104.316 72.2069 104.432 72.4373 104.512 72.6795C104.613 72.9838 104.597 73.2763 104.399 73.5581C101.146 78.2075 97.8975 82.8611 94.6478 87.5126C94.6048 87.5747 94.5575 87.6337 94.4521 87.7751C94.5725 86.5011 94.8176 85.3492 95.4884 84.3623C97.5578 81.3202 99.6627 78.3018 101.762 75.279C102.511 74.201 103.284 73.1402 104.045 72.0708C104.076 72.029 104.098 71.983 104.169 71.8619H104.17Z" fill="#3E3D3A"/>
<path d="M70.6149 96.3548C70.4977 96.7556 70.2591 96.8166 69.9699 96.8166C68.4348 96.8199 66.8986 96.8188 65.3635 96.8338C60.9775 96.8734 56.5916 96.9313 52.2045 96.9613C49.2633 96.9806 46.3221 96.9656 43.382 96.9656C43.2423 96.9656 43.1025 96.9656 42.9413 96.9656L42.8574 96.4287C52.1217 96.3259 61.3452 96.3077 70.6138 96.3559L70.6149 96.3548Z" fill="#3E3D3A"/>
<path d="M42.9394 102.103C43.3232 102.075 43.708 102.023 44.0918 102.022C52.7337 101.987 61.3756 101.957 70.0175 101.926C70.2722 101.926 70.541 101.903 70.6689 102.251C70.555 102.264 70.4593 102.285 70.3625 102.286C68.3899 102.317 66.4162 102.359 64.4436 102.374C57.698 102.427 50.9535 102.471 44.2079 102.516C43.9252 102.518 43.6371 102.516 43.3597 102.467C43.1931 102.437 43.0437 102.31 42.8867 102.227L42.9394 102.101V102.103Z" fill="#3E3D3A"/>
<path d="M64.8422 88.1341C62.5202 85.062 60.1875 81.9985 58.0332 78.7786C58.2375 78.4785 58.4385 78.1839 58.6653 77.8517C58.8395 78.0563 58.9953 78.2246 59.134 78.4057C60.3025 79.9251 61.4882 81.4317 62.6256 82.9736C63.449 84.089 64.2757 85.2174 64.6864 86.5686C64.8336 87.054 64.9056 87.5619 65.0131 88.0601C64.9562 88.0848 64.8992 88.1083 64.8422 88.133V88.1341Z" fill="#3E3D3A"/>
<path d="M108.52 87.6037C108.339 87.3797 108.18 87.1997 108.04 87.0057C106.244 84.5112 104.449 82.0146 102.658 79.5158C102.441 79.2125 102.251 78.89 102.05 78.576C101.837 78.2439 101.931 77.8453 102.298 77.6138C102.671 77.3781 102.774 77.7542 102.911 77.9385C104.208 79.684 105.489 81.4413 106.774 83.1954C106.888 83.3508 106.981 83.5265 107.116 83.6615C108.161 84.7095 108.351 86.0757 108.553 87.4397C108.557 87.4719 108.54 87.5061 108.519 87.6037H108.52Z" fill="#3E3D3A"/>
<path d="M116.21 96.2359C115.323 96.2734 114.513 96.3312 113.702 96.3398C108.657 96.3891 103.611 96.4277 98.5652 96.4705C95.5456 96.4962 92.5259 96.5294 89.5062 96.5423C89.2397 96.5434 88.972 96.4212 88.7043 96.3569C88.7043 96.3055 88.7021 96.253 88.7021 96.2016C89.0257 96.133 89.3504 96.0076 89.6739 96.0076C90.8081 96.0076 91.9433 96.0816 93.0774 96.073C98.0578 96.0355 103.038 95.9765 108.02 95.9315C109.595 95.9176 111.168 95.9326 112.743 95.9198C113.633 95.9123 114.522 95.8694 115.413 95.8544C115.691 95.8501 115.983 95.8512 116.209 96.2369L116.21 96.2359Z" fill="#3E3D3A"/>
<path d="M88.8966 101.703C97.4256 101.606 105.947 101.507 114.469 101.421C115.042 101.416 115.617 101.522 116.191 101.575C116.193 101.617 116.194 101.659 116.196 101.701C115.898 101.738 115.602 101.806 115.303 101.81C111.64 101.862 107.978 101.901 104.316 101.951C99.868 102.014 95.4186 102.081 90.9703 102.151C90.4027 102.159 89.8351 102.176 89.2696 102.215C88.9385 102.237 88.8181 102.115 88.8977 101.702L88.8966 101.703Z" fill="#3E3D3A"/>
<path d="M51.6404 97.5785C51.5812 98.11 51.3813 98.3929 50.8739 98.4507C50.5149 98.4915 50.1676 98.634 49.7086 98.7604C50.0537 99.0733 50.2934 99.3208 50.5654 99.5276C50.8029 99.7087 50.9287 99.908 50.8728 100.211C50.8513 100.324 50.8728 100.444 50.8567 100.557C50.7137 101.48 50.5105 101.491 49.8634 101.478C49.4151 101.468 48.9669 101.433 48.5197 101.395C48.1122 101.361 47.9155 101.089 47.8252 100.723C47.7672 100.488 47.7113 100.248 47.6865 100.008C47.6769 99.9123 47.7295 99.7891 47.793 99.7109C47.9155 99.563 48.0574 99.428 48.2079 99.308C48.4358 99.1247 48.5315 98.9136 48.3778 98.5965C48.0574 98.5504 47.7048 98.4668 47.349 98.4593C47.0211 98.4518 46.8932 98.3061 46.8502 98.0125C46.8308 97.8753 46.7771 97.7435 46.7212 97.5442C48.3724 97.3781 49.9903 97.4789 51.6404 97.5796V97.5785Z" fill="#3E3D3A"/>
<path d="M107.643 96.9945C109.163 96.8467 110.66 96.7042 112.198 96.9367C112.18 97.0803 112.168 97.1906 112.152 97.2999C112.137 97.4017 112.117 97.5024 112.097 97.6214C111.813 97.675 111.514 97.6985 111.24 97.7928C110.971 97.885 110.729 98.0479 110.403 98.2161C110.747 98.544 111.003 98.8129 111.284 99.0519C111.77 99.4666 111.506 99.9123 111.362 100.354C111.227 100.766 110.916 100.887 110.512 100.851C110.41 100.841 110.306 100.853 110.203 100.848C108.773 100.775 109.001 100.998 108.585 99.5491C108.551 99.4312 108.628 99.2437 108.714 99.1376C108.849 98.9704 109.06 98.8633 109.194 98.6951C109.284 98.5836 109.357 98.395 109.325 98.2697C109.293 98.1486 109.133 98.0307 109.002 97.9728C108.829 97.8968 108.631 97.8593 108.441 97.8421C107.949 97.7993 107.721 97.511 107.641 96.9945H107.643Z" fill="#3E3D3A"/>
<path d="M60.0739 98.665C59.6203 98.5332 59.2494 98.3961 58.8667 98.32C58.4313 98.2332 58.198 97.9814 58.0776 97.526C59.545 97.3117 61.0038 97.3931 62.5174 97.3921C62.4744 97.6589 62.4679 97.9042 62.3851 98.1207C62.3454 98.2257 62.1701 98.3157 62.0411 98.3436C61.6058 98.4379 61.1629 98.5011 60.5899 98.5986C60.8877 98.9008 61.0769 99.1408 61.3112 99.323C62.0766 99.9187 61.8412 100.534 61.3736 101.243C61.1457 101.589 59.6117 101.534 59.3558 101.208C58.9978 100.753 59.0043 99.9766 59.3676 99.534C59.5848 99.2694 59.7998 99.0026 60.0739 98.664V98.665Z" fill="#3E3D3A"/>
<path d="M52.7393 97.4917H57.0769C57.0349 97.7275 57.0167 97.9686 56.9393 98.1882C56.9113 98.2686 56.7511 98.3275 56.6415 98.3522C56.1964 98.4518 55.7482 98.5343 55.302 98.6233C55.2891 98.664 55.2752 98.7058 55.2623 98.7465C55.5611 99.0562 55.8514 99.3744 56.162 99.6702C56.3061 99.8073 56.391 99.9177 56.3115 100.13C56.2319 100.344 56.1685 100.575 56.1556 100.802C56.1276 101.303 55.818 101.431 55.3913 101.436C55.2365 101.438 55.0806 101.459 54.9279 101.447C54.6323 101.425 54.1561 101.485 54.0755 101.337C53.8379 100.905 53.7422 100.389 53.6294 99.8962C53.6079 99.8041 53.753 99.6573 53.8476 99.5609C54.069 99.3326 54.3055 99.1205 54.5549 98.8836C54.0454 98.4336 53.4305 98.4861 52.8521 98.3093C52.8199 98.0779 52.7866 97.8314 52.7403 97.4907L52.7393 97.4917Z" fill="#3E3D3A"/>
<path d="M106.424 61.0523C106.424 60.6933 106.443 60.3322 106.419 59.9743C106.399 59.6657 106.529 59.5575 106.819 59.5682C107.526 59.5961 108.234 59.625 108.941 59.64C109.76 59.6572 109.774 59.6507 109.802 60.479C109.823 61.0812 109.791 61.6845 109.801 62.2878C109.804 62.5117 109.691 62.5942 109.504 62.5985C108.592 62.6199 107.678 62.6306 106.764 62.6499C106.532 62.6553 106.441 62.5417 106.443 62.322C106.446 61.8988 106.443 61.4745 106.443 61.0512H106.423L106.424 61.0523Z" fill="#3E3D3A"/>
<path d="M55.877 63.0528V60.2176C56.9885 60.0365 58.0785 59.9261 59.2299 60.1372C59.2299 60.808 59.232 61.4702 59.2299 62.1324C59.2266 62.9328 59.2299 62.9843 58.4569 63.0389C57.6152 63.0989 56.766 63.0528 55.877 63.0528Z" fill="#3E3D3A"/>
<path d="M49.384 66.3938V65.8195C49.7989 65.7949 50.2203 65.7477 50.6407 65.7477C55.4534 65.7423 60.2662 65.7423 65.0778 65.7434C65.2574 65.7434 65.438 65.7734 65.6175 65.7777C65.8852 65.7852 65.9776 65.9234 65.9443 66.2363C65.7508 66.2363 65.5637 66.2363 65.3767 66.2363C63.5696 66.2363 61.7636 66.2192 59.9566 66.2417C57.1186 66.2781 54.2817 66.3435 51.4437 66.3917C50.7632 66.4035 50.0827 66.3938 49.3818 66.3938H49.384Z" fill="#3E3D3A"/>
<path d="M104.075 98.1721C103.544 98.0382 103.126 97.9224 102.703 97.8271C102.209 97.7156 102.208 97.7231 102.295 97.1017C103.683 97.0459 105.087 96.9891 106.57 96.9291C106.491 97.3127 106.433 97.5903 106.375 97.8699C105.983 97.9053 105.621 97.9128 105.271 97.9814C105.132 98.0082 104.961 98.1475 104.912 98.276C104.871 98.3843 104.957 98.5696 105.037 98.6875C105.113 98.799 105.256 98.8632 105.365 98.9522C105.838 99.3347 105.91 99.5565 105.747 100.122C105.582 100.693 105.445 100.814 104.849 100.863C104.542 100.888 104.231 100.872 103.924 100.893C103.578 100.915 103.37 100.742 103.225 100.452C102.926 99.8555 102.968 99.4912 103.397 98.9833C103.601 98.7422 103.802 98.4979 104.075 98.17V98.1721Z" fill="#3E3D3A"/>
<path d="M62.7594 61.527C62.7594 61.1423 62.7475 60.7566 62.769 60.3729C62.7744 60.2808 62.8905 60.1201 62.9582 60.119C63.8817 60.0954 64.8051 60.0858 65.7274 60.0997C65.8188 60.1008 65.98 60.2765 65.9843 60.3762C66.0144 61.1305 66.0263 61.887 66.008 62.6424C66.0058 62.7528 65.822 62.9489 65.7167 62.9521C64.7954 62.9853 63.8741 62.9885 62.9529 62.98C62.8873 62.98 62.7723 62.8139 62.7669 62.7207C62.7465 62.3242 62.7583 61.9256 62.7583 61.5281L62.7594 61.527Z" fill="#3E3D3A"/>
<path d="M94.7135 62.7453C94.2642 62.725 93.8138 62.7068 93.3644 62.6821C93.1655 62.6714 93.029 62.6039 93.0333 62.3574C93.0451 61.6524 93.0419 60.9462 93.0398 60.2401C93.0398 59.9615 93.1559 59.8104 93.4504 59.8104C94.3254 59.8083 95.2005 59.7954 96.0755 59.8051C96.1594 59.8051 96.3088 59.9336 96.3131 60.0086C96.3626 60.7866 96.3851 61.5666 96.4228 62.3456C96.4357 62.6071 96.2873 62.681 96.0648 62.681C95.6144 62.6821 95.165 62.681 94.7146 62.681V62.7443L94.7135 62.7453Z" fill="#3E3D3A"/>
<path d="M102.986 62.6381H99.871C99.8376 61.6866 99.7989 60.7812 99.7871 59.8747C99.7871 59.805 99.9763 59.6775 100.083 59.6711C100.532 59.6454 100.985 59.6464 101.435 59.6561C101.847 59.6646 102.259 59.7054 102.67 59.7129C102.877 59.7161 102.986 59.7793 102.986 59.9968C102.984 60.8508 102.986 61.7048 102.986 62.6392V62.6381Z" fill="#3E3D3A"/>
<path d="M93.2214 65.5313C93.9599 65.4991 94.7038 65.4477 95.4488 65.438C99.4725 65.3887 103.495 65.348 107.519 65.3105C108.151 65.3052 108.782 65.3384 109.414 65.348C109.596 65.3502 109.74 65.3555 109.747 65.602C109.756 65.8816 109.582 65.872 109.394 65.8741C107.163 65.8924 104.931 65.9116 102.701 65.932C99.6574 65.9599 96.6141 65.9909 93.5707 66.0177C93.1365 66.022 93.116 65.9899 93.2235 65.5313H93.2214Z" fill="#3E3D3A"/>
<path d="M52.5327 63.0475C51.504 63.1086 50.5461 63.1718 49.5872 63.2104C49.5066 63.2136 49.3475 63.0561 49.3464 62.9714C49.3378 62.126 49.3464 61.2795 49.3755 60.4341C49.3787 60.3505 49.5453 60.2047 49.6388 60.2026C50.4365 60.1865 51.2352 60.1994 52.0339 60.1983C52.3285 60.1983 52.4037 60.3837 52.4156 60.6216C52.4553 61.3888 52.4897 62.156 52.5327 63.0475Z" fill="#3E3D3A"/>
<path d="M96.9138 97.1371H100.983C100.945 97.3964 100.908 97.6578 100.867 97.9471C100.518 97.9664 100.186 97.9761 99.856 98.0071C99.6765 98.0232 99.483 97.9889 99.3981 98.2557C99.3196 98.5022 99.3873 98.6458 99.5636 98.7861C99.6238 98.8344 99.6776 98.8911 99.7313 98.9458C99.9248 99.1462 100.269 99.3423 100.275 99.5491C100.287 99.9145 100.107 100.291 99.9743 100.651C99.941 100.741 99.7905 100.81 99.6797 100.842C99.5217 100.888 99.3508 100.905 99.1852 100.911C98.8563 100.923 98.3586 101.052 98.2328 100.894C97.9694 100.563 97.8856 100.082 97.7662 99.6509C97.7404 99.5566 97.8587 99.4033 97.9404 99.3026C98.1253 99.0744 98.3467 98.874 98.522 98.6393C98.6843 98.4218 98.6273 98.2097 98.365 98.1154C98.1016 98.0211 97.8264 97.9364 97.5502 97.9032C96.9783 97.8346 96.9664 97.84 96.9116 97.136L96.9138 97.1371Z" fill="#3E3D3A"/>
<path d="M65.7606 98.6683C66.0767 99.0197 66.3809 99.3294 66.6475 99.668C66.7485 99.7966 66.8313 100.004 66.8066 100.158C66.6314 101.229 66.2723 101.49 65.1823 101.359C65.0877 101.347 64.9619 101.237 64.9275 101.143C64.7888 100.773 64.6598 100.394 64.5706 100.009C64.5437 99.893 64.6286 99.7237 64.7125 99.6176C64.9619 99.3005 65.236 99.0015 65.5617 98.6265C65.136 98.5172 64.8189 98.4218 64.4964 98.3575C63.8278 98.2247 63.7805 98.1743 63.7729 97.4532C64.3964 97.2003 66.8163 97.2399 67.5741 97.5153C67.5709 98.1443 67.4666 98.275 66.884 98.3822C66.5679 98.44 66.2519 98.4947 65.9369 98.5547C65.9025 98.5611 65.8735 98.5943 65.7595 98.6683H65.7606Z" fill="#3E3D3A"/>
<path d="M99.9 49.7638C100.329 49.9877 100.66 50.187 101.014 50.3317C101.165 50.3938 101.385 50.3917 101.537 50.3295C101.879 50.1924 102.198 49.9995 102.635 49.7723C102.568 50.1849 102.531 50.5053 102.463 50.8192C102.396 51.131 102.417 51.3871 102.701 51.5993C102.976 51.804 103.22 52.0483 103.477 52.2744L103.408 52.3804C103.019 52.4426 102.625 52.4865 102.244 52.5776C102.094 52.613 101.923 52.7298 101.846 52.8583C101.643 53.1959 101.486 53.5613 101.275 53.9856C101.069 53.5773 100.912 53.2184 100.707 52.8883C100.621 52.749 100.448 52.6172 100.291 52.5776C99.9108 52.4812 99.5163 52.4415 99.0293 52.3644C99.3561 52.0525 99.6162 51.7911 99.8904 51.5468C100.077 51.3796 100.17 51.2189 100.097 50.9467C100.001 50.5921 99.9721 50.2202 99.9 49.7627V49.7638Z" fill="#3E3D3A"/>
<path d="M44.5046 72.4855C44.711 72.9034 44.8744 73.2805 45.0829 73.6299C45.1603 73.7595 45.3356 73.8763 45.4861 73.9106C45.8731 73.9974 46.2708 74.0349 46.7578 74.1045C46.4202 74.4249 46.1117 74.6896 45.8419 74.9886C45.7398 75.1011 45.672 75.2972 45.6839 75.4482C45.7129 75.8394 45.7935 76.2262 45.8666 76.7041C45.5656 76.5498 45.3227 76.4619 45.1227 76.3151C44.6895 75.9969 44.2907 76.0129 43.8639 76.3258C43.6726 76.4662 43.4382 76.5498 43.1404 76.703C43.2125 76.2294 43.2899 75.8351 43.3232 75.4365C43.335 75.2961 43.2748 75.1161 43.1834 75.0078C42.9276 74.7046 42.6395 74.4292 42.3267 74.1035C42.7126 74.0424 43.0802 73.961 43.4511 73.9342C43.722 73.9149 43.865 73.7992 43.9703 73.5613C44.1241 73.213 44.3079 72.8777 44.5035 72.4865L44.5046 72.4855Z" fill="#3E3D3A"/>
<path d="M114.582 72.4833C114.794 72.9119 114.956 73.2763 115.155 73.6181C115.228 73.7435 115.377 73.8752 115.514 73.9042C115.914 73.991 116.325 74.0296 116.764 74.0906C116.475 74.3939 116.182 74.6682 115.932 74.9768C115.828 75.1043 115.755 75.3079 115.766 75.4708C115.791 75.8501 115.874 76.2251 115.949 76.7009C115.537 76.4898 115.214 76.2937 114.866 76.1576C114.701 76.0933 114.47 76.089 114.306 76.1533C113.963 76.2873 113.644 76.4844 113.223 76.7052C113.292 76.2476 113.327 75.8629 113.412 75.49C113.466 75.2522 113.396 75.1043 113.227 74.9543C112.942 74.7003 112.672 74.4303 112.336 74.1099C112.806 74.0381 113.186 74.0049 113.553 73.9128C113.725 73.8688 113.919 73.7445 114.012 73.5977C114.223 73.2645 114.376 72.8959 114.583 72.4833H114.582Z" fill="#3E3D3A"/>
<path d="M58.9224 49.7648C58.8375 50.2341 58.7451 50.6092 58.7139 50.9896C58.6999 51.1546 58.7709 51.3667 58.8794 51.4921C59.1278 51.7814 59.4212 52.0311 59.7663 52.3643C59.2772 52.4436 58.8762 52.4918 58.486 52.5818C58.3484 52.614 58.1925 52.7265 58.1205 52.8476C57.9195 53.1883 57.7572 53.5516 57.5357 53.992C57.3379 53.5923 57.1638 53.2601 57.0068 52.9194C56.909 52.7061 56.7907 52.5743 56.5263 52.5551C56.1479 52.5283 55.7727 52.4436 55.2954 52.3675C55.6158 52.06 55.8716 51.7986 56.1457 51.5585C56.3489 51.3807 56.4349 51.2049 56.3575 50.921C56.2618 50.5684 56.2317 50.1977 56.1619 49.7648C56.5618 49.9716 56.9101 50.1323 57.2379 50.3284C57.4551 50.4581 57.6271 50.4495 57.841 50.322C58.1699 50.1281 58.5193 49.9684 58.9192 49.7637L58.9224 49.7648Z" fill="#3E3D3A"/>
<path d="M93.8265 98.4293C94.1877 98.7465 94.4984 99.0519 94.8446 99.3112C95.0639 99.4751 95.1004 99.6358 94.9961 99.8619C94.98 99.8973 94.9639 99.9316 94.951 99.968C94.564 101.06 94.507 101.096 93.3621 100.987C93.3363 100.985 93.3095 100.987 93.2847 100.983C92.9655 100.91 92.5656 99.7141 92.7795 99.4633C93.0762 99.114 93.3793 98.77 93.7427 98.3532C93.2923 98.2375 92.93 98.1078 92.5581 98.0585C92.0775 97.9943 91.87 97.7307 91.8281 97.196C92.6505 97.1799 93.4696 97.1606 94.2877 97.1499C94.6349 97.1456 94.9854 97.1402 95.3305 97.1756C95.4595 97.1885 95.6712 97.3063 95.6809 97.3931C95.7046 97.6182 95.7218 97.886 95.3713 97.9493C94.9682 98.0221 94.5704 98.1261 94.1748 98.23C94.0706 98.2579 93.9813 98.3382 93.8276 98.4282L93.8265 98.4293Z" fill="#3E3D3A"/>
<path d="M45.7268 97.5817C45.7106 97.7596 45.6805 97.9235 45.6838 98.0864C45.687 98.3296 45.5849 98.4261 45.3387 98.4368C45.0581 98.4497 44.7754 98.4904 44.4991 98.5482C44.1057 98.6307 44.0229 98.8697 44.2916 99.174C44.4421 99.3444 44.6303 99.4901 44.8216 99.6166C45.0377 99.7591 45.1129 99.9284 45.0226 100.169C45.014 100.193 45.0076 100.219 45.0033 100.244C44.7872 101.635 44.7926 101.535 43.2317 101.447C43.1457 101.441 42.9995 101.282 42.9984 101.193C42.9823 100.001 42.9877 98.8097 42.9877 97.5828H45.7268V97.5817Z" fill="#3E3D3A"/>
<path d="M88.5484 82.4324C87.8195 82.486 87.0907 82.5782 86.3608 82.5878C82.7746 82.6371 79.1884 82.6843 75.6022 82.6928C73.994 82.696 72.3858 82.605 70.7744 82.5182C71.1313 82.2128 71.5559 82.2621 71.9698 82.2599C74.9873 82.2449 78.0048 82.2299 81.0223 82.2128C82.1059 82.2064 83.1895 82.1989 84.2731 82.1806C85.3556 82.1624 86.4382 82.1121 87.5207 82.1121C87.8668 82.1121 88.213 82.2278 88.5591 82.291L88.5484 82.4335V82.4324Z" fill="#3E3D3A"/>
<path d="M115.332 98.065C114.83 97.9171 114.431 97.7853 114.023 97.6846C113.513 97.5581 113.481 97.5378 113.346 96.897C114.231 96.8841 115.1 96.867 115.967 96.8691C116.033 96.8691 116.154 97.0106 116.155 97.0877C116.166 98.23 116.166 99.3722 116.15 100.514C116.15 100.592 116.013 100.679 115.924 100.738C115.879 100.768 115.798 100.747 115.734 100.749C114.609 100.788 114.403 100.608 114.309 99.4633C114.301 99.3562 114.367 99.2233 114.438 99.1333C114.7 98.8022 114.977 98.4839 115.331 98.0628L115.332 98.065Z" fill="#3E3D3A"/>
<path d="M77.1373 104.074C76.9492 103.058 76.9804 102.933 77.7813 102.909C79.2712 102.868 80.7644 102.92 82.2565 102.933V103.04C82.2694 103.062 82.2941 103.082 82.2952 103.103C82.3618 104.042 82.3919 103.965 81.5792 104.007C80.9235 104.04 80.2666 104.062 79.6098 104.071C78.7864 104.082 77.9629 104.073 77.1373 104.073V104.074Z" fill="#3E3D3A"/>
<path d="M65.7723 66.8579C64.8027 68.2573 63.8331 69.6578 62.8484 71.0786C62.2507 70.2771 62.2593 69.541 62.7914 68.8145C63.1397 68.3376 63.4826 67.8522 63.775 67.3411C64.0115 66.9264 64.3136 66.7068 64.793 66.725C65.0876 66.7357 65.3832 66.7271 65.6777 66.7271L65.7723 66.8589V66.8579Z" fill="#3E3D3A"/>
<path d="M88.3506 85.0363C87.5669 85.0695 86.7832 85.1156 85.9995 85.1349C82.9186 85.2088 79.8387 85.2795 76.7578 85.3395C75.327 85.3674 73.8951 85.3845 72.4643 85.3717C71.9633 85.3674 71.4624 85.2602 70.9614 85.1992C70.9657 85.1435 70.97 85.0877 70.9743 85.032C76.7675 84.9774 82.5595 84.9227 88.3527 84.8691L88.3506 85.0363Z" fill="#3E3D3A"/>
<path d="M88.3062 71.0561C87.7321 71.0979 87.1592 71.1686 86.5851 71.174C84.9726 71.1922 83.3612 71.1707 81.7487 71.1879C78.2937 71.2254 74.8376 71.279 71.3825 71.3186C71.1955 71.3208 71.0074 71.2533 70.8203 71.2179C71.002 71.145 71.1826 71.0111 71.3653 71.0079C73.4928 70.9704 75.6202 70.95 77.7476 70.9307C79.3461 70.9168 80.9457 70.9061 82.5442 70.9039C84.1825 70.9018 85.8197 70.9093 87.458 70.92C87.7397 70.9221 88.0213 70.965 88.304 70.9886L88.3073 71.0561H88.3062Z" fill="#3E3D3A"/>
<path d="M70.9044 68.1865C71.286 68.1437 71.6666 68.0633 72.0482 68.0633C76.704 68.0633 81.3587 68.0719 86.0145 68.0837C86.7477 68.0858 87.4808 68.1158 88.2129 68.1351C88.2559 68.1362 88.2989 68.1608 88.3806 68.1876C87.3787 68.4137 71.6558 68.4694 70.9033 68.1865H70.9044Z" fill="#3E3D3A"/>
<path d="M109.417 66.441C108.404 67.8822 107.457 69.2291 106.51 70.576L106.392 70.5171C106.16 69.7949 105.985 69.0781 106.498 68.3773C106.922 67.7965 107.314 67.189 107.769 66.635C107.906 66.4689 108.205 66.3907 108.44 66.3628C108.71 66.3317 108.992 66.4014 109.416 66.441H109.417Z" fill="#3E3D3A"/>
<path d="M54.7418 72.0601C55.5814 73.2967 56.3468 74.41 57.0907 75.5372C57.1659 75.6508 57.1713 75.8694 57.1143 75.9969C56.9971 76.2605 56.8155 76.4962 56.6392 76.777C55.9716 75.908 55.3148 75.1033 54.716 74.2567C54.3666 73.7628 54.2752 73.1574 54.3311 72.5595C54.3462 72.4019 54.5666 72.2637 54.7418 72.0601Z" fill="#3E3D3A"/>
<path d="M70.6615 57.1444C76.4095 57.0834 82.1565 57.0201 87.9045 56.9655C88.0883 56.9634 88.2743 57.0459 88.4592 57.0887V57.1862C88.098 57.2184 87.7368 57.2816 87.3766 57.2773C86.1254 57.2602 84.8751 57.1916 83.6249 57.198C82.7004 57.2034 81.777 57.3062 80.8525 57.347C79.9377 57.3866 79.0218 57.4134 78.1059 57.4241C75.7839 57.452 73.4608 57.4723 71.1378 57.482C70.9668 57.482 70.7959 57.363 70.625 57.2998L70.6615 57.1444Z" fill="#3E3D3A"/>
<path d="M93.3536 66.4828C94.1803 66.3328 94.8231 66.4807 95.2596 67.1782C95.6745 67.8415 96.1099 68.4919 96.5141 69.1605C96.8076 69.6449 96.4937 70.0671 96.3163 70.5803C95.1381 69.3223 94.2061 67.9626 93.3525 66.4828H93.3536Z" fill="#3E3D3A"/>
<path d="M52.3724 70.9329C51.4501 69.5924 50.5277 68.253 49.585 66.8825C50.4923 66.6511 51.1609 66.8139 51.6092 67.594C51.936 68.1619 52.3154 68.7009 52.6197 69.2806C52.9099 69.8324 52.6809 70.3746 52.4917 70.9018L52.3724 70.9329Z" fill="#3E3D3A"/>
<path d="M100.3 76.3923C99.6301 75.399 98.9872 74.4743 98.3777 73.5281C98.0391 73.002 98.1939 72.4555 98.4304 71.8597C98.5981 72.0548 98.7389 72.1983 98.8561 72.3601C99.5108 73.2634 100.157 74.1742 100.814 75.0765C100.981 75.3068 100.994 75.5008 100.796 75.7215C100.635 75.9015 100.506 76.1105 100.3 76.3923Z" fill="#3E3D3A"/>
<path d="M52.1132 97.9814C52.4615 98.6511 53.1022 98.7411 53.7353 98.9415C53.2505 99.4558 52.813 99.9401 53.129 100.677C52.655 100.588 51.7369 100.622 51.2585 100.75C51.5348 100.015 51.3445 99.4397 50.6641 99.0122C51.337 98.905 52.0336 98.9179 52.1132 97.9814Z" fill="#3E3D3A"/>
<path d="M46.3387 97.8839C46.5892 98.6083 46.9858 99.0251 47.9114 98.7947C47.4223 99.4366 46.9321 99.9552 47.3137 100.805C46.6365 100.534 46.0753 100.239 45.44 100.855C45.5539 100.029 45.426 99.4269 44.8315 98.9426C45.7109 99.1044 46.1656 98.7283 46.3387 97.8839Z" fill="#3E3D3A"/>
<path d="M113.823 100.052H112.044C112.322 99.3455 112.051 98.829 111.364 98.4647C111.473 98.4186 111.504 98.395 111.535 98.3939C112.158 98.3618 112.739 98.2772 112.701 97.3117C112.976 97.6632 113.119 97.9503 113.35 98.1143C113.59 98.2847 113.916 98.3361 114.322 98.4818C113.597 98.8365 113.575 99.384 113.822 100.052H113.823Z" fill="#3E3D3A"/>
<path d="M97.8405 98.5986C97.7244 98.725 97.704 98.7625 97.6728 98.7808C97.2514 99.0144 97.0773 99.3315 97.2428 99.8212C97.3568 100.157 97.2159 100.314 96.8386 100.278C96.5193 100.248 96.1947 100.288 95.8743 100.267C95.7819 100.261 95.612 100.127 95.6217 100.087C95.7625 99.5244 95.3874 99.204 95.0702 98.8536C95.0283 98.8075 94.995 98.7529 94.9004 98.6232C95.6454 98.6843 96.2474 98.5665 96.3033 97.5935C96.7419 98.1528 97.0418 98.7058 97.8416 98.5986H97.8405Z" fill="#3E3D3A"/>
<path d="M56.7736 100.759C56.8402 100.293 56.9993 99.9273 56.9015 99.653C56.8112 99.399 56.4479 99.2404 56.1694 98.9694C56.9606 99.0497 57.5583 98.8686 57.6142 97.8689C58.0303 98.4422 58.2614 99.0561 59.059 98.9801C58.5043 99.4419 58.4635 100.002 58.5624 100.685C57.9507 100.388 57.3906 100.286 56.7725 100.759H56.7736Z" fill="#3E3D3A"/>
<path d="M107.061 97.4724C107.468 97.9707 107.785 98.4775 108.58 98.4143C108.137 98.9737 107.731 99.4451 108.099 100.216C107.71 100.027 107.454 99.8073 107.196 99.8041C106.937 99.8009 106.676 100.015 106.355 100.161C106.419 99.4869 106.272 98.9147 105.678 98.4979C106.363 98.425 107.024 98.3886 107.062 97.4714L107.061 97.4724Z" fill="#3E3D3A"/>
<path d="M64.5675 98.934C64.3224 99.2308 64.0515 99.429 63.9806 99.6819C63.9086 99.9412 64.0333 100.254 64.0838 100.637C63.485 100.331 62.9002 99.9584 62.3057 100.667C62.6669 99.8083 62.2423 99.3262 61.6543 98.8783C61.9048 98.8622 62.1563 98.8322 62.4068 98.8322C62.7551 98.8322 62.9583 98.6961 62.983 98.3307C62.9905 98.2203 63.0389 98.1132 63.0873 97.931C63.4624 98.4679 63.8774 98.8686 64.5675 98.934Z" fill="#3E3D3A"/>
<path d="M100.178 98.5675C100.932 98.5986 101.403 98.3039 101.552 97.4949C101.757 97.8432 101.849 98.1679 102.064 98.3189C102.281 98.47 102.619 98.4464 102.936 98.5054C102.862 98.6275 102.81 98.7454 102.73 98.8386C102.491 99.1172 102.385 99.429 102.447 99.7944C102.492 100.055 102.4 100.169 102.117 100.154C101.737 100.135 101.354 100.149 100.884 100.149C101.125 99.3969 100.741 98.9661 100.177 98.5665L100.178 98.5675Z" fill="#3E3D3A"/>
<path d="M69.7048 98.9833C68.9738 99.398 68.8405 99.9616 69.134 100.745C68.7954 100.578 68.5718 100.489 68.3718 100.362C68.0966 100.187 67.8601 100.163 67.629 100.431C67.5591 100.511 67.4516 100.559 67.2925 100.627C67.7311 99.8459 67.299 99.3787 66.7109 98.9276C67.4269 98.9201 68.0848 98.8954 68.1009 97.8614C68.3632 98.2279 68.4922 98.5364 68.7244 98.695C68.962 98.8579 69.3006 98.874 69.7048 98.9833Z" fill="#3E3D3A"/>
<path d="M89.7769 98.7507C90.4488 98.4893 91.2852 98.7165 91.3153 97.6921C91.5195 98.38 91.9613 98.6575 92.6558 98.6329C92.086 99.0861 92.0151 99.6326 92.2537 100.363C91.5937 100.032 91.0164 100.04 90.3574 100.369C90.509 99.6733 90.666 99.0626 89.7759 98.7507H89.7769Z" fill="#3E3D3A"/>
<path d="M53.9465 94.9747C54.0174 95.7826 54.0174 95.7891 53.223 95.7934C52.2103 95.7998 51.1977 95.7944 50.1582 95.7944C50.127 95.5276 50.098 95.279 50.0625 94.9736H53.9465V94.9747Z" fill="#3E3D3A"/>
<path d="M98.0965 95.4312H94.1276C94.0964 95.2458 94.0577 95.0143 94.0137 94.7507C94.1491 94.7272 94.2448 94.6993 94.3415 94.6961C95.395 94.6639 96.4496 94.65 97.502 94.5996C97.8794 94.5814 98.0944 94.6532 98.0503 95.0786C98.0406 95.1751 98.075 95.2758 98.0965 95.4322V95.4312Z" fill="#3E3D3A"/>
<path d="M105.058 94.5354H108.998C109.003 94.5558 109.025 94.6029 109.028 94.6511C109.068 95.2587 109.067 95.2512 108.444 95.2672C107.568 95.2898 106.693 95.3262 105.817 95.353C105.109 95.3744 105.109 95.3723 105.058 94.5365V94.5354Z" fill="#3E3D3A"/>
<path d="M64.9919 94.8654C65.0241 94.935 65.0413 94.9575 65.0446 94.9811C65.1349 95.6626 65.122 95.6776 64.4479 95.6776C63.4837 95.6776 62.5194 95.6669 61.5551 95.683C61.2563 95.6883 61.1918 95.5683 61.18 95.2994C61.1681 95.025 61.2939 94.9822 61.5218 94.9758C62.6764 94.9447 63.8309 94.9029 64.9908 94.8643L64.9919 94.8654Z" fill="#3E3D3A"/>
<path d="M87.527 50.2792C87.2497 50.2535 86.9315 50.217 86.6122 50.1978C86.2187 50.1731 86.2456 49.8924 86.222 49.6181C86.194 49.3073 86.3843 49.2977 86.6057 49.2912C87.2196 49.272 87.8345 49.242 88.4483 49.2227C88.6902 49.2152 88.931 49.2248 88.8869 49.5795C88.8525 49.8506 89.0256 50.231 88.4913 50.2117C88.186 50.1999 87.8785 50.2535 87.527 50.2803V50.2792Z" fill="#3E3D3A"/>
<path d="M81.0188 49.3866C81.0188 50.2299 81.0188 50.2471 80.2599 50.2738C79.7106 50.2942 79.1591 50.2653 78.6087 50.2471C78.4023 50.2406 78.2647 50.1378 78.3077 49.9042C78.3464 49.692 78.1776 49.377 78.5603 49.3245C79.3762 49.212 80.19 49.2141 81.0188 49.3855V49.3866Z" fill="#3E3D3A"/>
<path d="M77.0854 102.307V101.843H82.3035C82.038 102.223 81.7069 102.308 81.3349 102.308C80.1621 102.308 78.9882 102.308 77.8154 102.307C77.5864 102.307 77.3563 102.307 77.0854 102.307Z" fill="#3E3D3A"/>
<path d="M72.9049 49.407C73.0027 50.1977 73.0049 50.216 72.3008 50.2867C71.817 50.3349 71.3268 50.3392 70.8399 50.3295C70.698 50.3263 70.4378 50.2031 70.44 50.1431C70.4507 49.8838 70.3787 49.5152 70.7539 49.453C71.2559 49.3705 71.7687 49.3459 72.2793 49.3223C72.4792 49.3127 72.6824 49.3737 72.9049 49.4059V49.407Z" fill="#3E3D3A"/>
<path d="M88.857 101.096C88.885 100.315 88.5861 99.5459 88.9527 98.7068C89.2687 98.9929 89.5762 99.2105 89.7955 99.4966C89.9041 99.638 89.8901 99.9112 89.8568 100.112C89.8224 100.319 89.6794 100.508 89.617 100.715C89.5052 101.089 89.2526 101.174 88.857 101.097V101.096Z" fill="#3E3D3A"/>
<path d="M70.5841 98.6758V101.163C70.0327 101.333 69.9735 101.268 69.7757 100.781C69.5167 100.143 69.6027 99.6305 70.1337 99.1848C70.2842 99.0583 70.3971 98.889 70.5831 98.6758H70.5841Z" fill="#3E3D3A"/>
<path d="M70.5645 98.5322C70.0754 98.4593 69.6476 98.4111 69.2262 98.3243C69.1026 98.2986 68.9574 98.1871 68.8994 98.0757C68.8026 97.8882 68.7672 97.6685 68.6758 97.3588C69.2552 97.3492 69.783 97.332 70.3087 97.3428C70.3743 97.3438 70.4796 97.4938 70.4914 97.5849C70.5334 97.8978 70.542 98.2161 70.5635 98.5322H70.5645Z" fill="#3E3D3A"/>
<path d="M90.6465 97.257C90.6648 97.9171 90.6326 97.9514 90.0327 98.0553C89.7167 98.11 89.3996 98.1667 89.0878 98.2439C88.8513 98.3028 88.7653 98.1978 88.7793 97.9932C88.7965 97.7531 88.8438 97.5153 88.8814 97.257H90.6465Z" fill="#3E3D3A"/>
<path d="M55.3244 63.0185H53.1153C53.0175 62.4153 53.0583 62.3638 53.6711 62.3778C54.0957 62.3874 54.5214 62.4067 54.946 62.427C55.3836 62.4485 55.4115 62.4892 55.3244 63.0185Z" fill="#3E3D3A"/>
<path d="M59.8523 62.4903H62.1904C62.0507 62.8868 61.8421 63.1075 61.4218 63.085C61.0359 63.0646 60.6489 63.0668 60.2619 63.0743C59.8932 63.0807 59.7308 62.9328 59.8512 62.4914L59.8523 62.4903Z" fill="#3E3D3A"/>
<path d="M105.882 62.5267C105.244 62.5632 104.605 62.591 103.968 62.6392C103.728 62.6575 103.661 62.5042 103.666 62.3424C103.668 62.261 103.816 62.1238 103.909 62.1142C104.388 62.0681 104.874 62.0167 105.351 62.0499C105.556 62.0638 105.747 62.2781 105.944 62.4003C105.923 62.4421 105.903 62.4839 105.881 62.5257L105.882 62.5267Z" fill="#3E3D3A"/>
<path d="M97.1631 62.6349C97.0825 62.0895 97.1018 62.0531 97.6447 62.0531C98.0424 62.0531 98.4434 62.0788 98.8369 62.1335C98.9433 62.1485 99.0282 62.3124 99.1228 62.4088C99.0175 62.4839 98.9153 62.621 98.8078 62.6253C98.2703 62.6478 97.7318 62.636 97.1631 62.636V62.6349Z" fill="#3E3D3A"/>
<path d="M47.046 101.332C46.6311 101.385 46.2473 101.433 45.7646 101.493C45.8732 101.266 45.9108 101.062 46.0334 100.96C46.1893 100.831 46.8052 101.071 47.046 101.331V101.332Z" fill="#3E3D3A"/>
<path d="M52.8238 101.43C52.4358 101.4 52.0488 101.37 51.6016 101.335C52.1412 100.689 52.3519 100.699 52.8238 101.43Z" fill="#3E3D3A"/>
<path d="M106.773 100.494H107.583C107.612 100.718 107.342 100.874 106.773 100.961V100.494Z" fill="#3E3D3A"/>
<path d="M112.402 100.716C112.826 100.111 113.042 100.105 113.471 100.716H112.402Z" fill="#3E3D3A"/>
<path d="M62.6128 101.32C62.9708 100.744 63.1772 100.731 63.8179 101.214C63.3986 101.251 63.0417 101.283 62.6128 101.32Z" fill="#3E3D3A"/>
<path d="M68.5092 100.998C68.5189 101.45 68.506 101.454 67.7373 101.25C67.6664 100.816 67.7803 100.828 68.5092 100.998Z" fill="#3E3D3A"/>
<path d="M58.2562 101.221C57.8595 101.256 57.5628 101.283 57.2393 101.313C57.5241 100.763 57.6209 100.749 58.2562 101.221Z" fill="#3E3D3A"/>
<path d="M91.8679 100.971H90.7886C91.1949 100.548 91.3508 100.541 91.8679 100.971Z" fill="#3E3D3A"/>
<path d="M95.8633 100.795C96.189 100.761 96.5147 100.727 96.8394 100.692C96.8469 100.753 96.8544 100.815 96.863 100.876C96.5427 100.92 96.2213 100.963 95.9009 101.007C95.888 100.937 95.8762 100.866 95.8633 100.795Z" fill="#3E3D3A"/>
<path d="M102.073 100.597C101.778 101.163 101.478 100.843 101.191 100.704C101.46 100.672 101.728 100.639 102.073 100.597Z" fill="#3E3D3A"/>
<path d="M79.4184 74.3317C79.8258 74.2278 80.015 73.991 80.0537 73.6191C80.0709 73.4541 80.1042 73.2891 80.144 73.1273C80.2977 72.4962 80.7395 72.1972 81.4404 72.2465C82.079 72.2904 82.4423 72.6065 82.4628 73.2698C82.5369 75.6979 82.5778 78.126 82.6369 80.5551C82.6455 80.9227 82.5412 81.1166 82.1166 81.1166C80.3923 81.1198 78.668 81.1509 76.9427 81.1745C76.6997 81.1777 76.5965 81.0716 76.5987 80.8252C76.6202 78.2931 76.6277 75.76 76.6589 73.228C76.6664 72.6258 77.2469 72.1576 77.8887 72.2079C78.4154 72.2497 79.0464 72.4555 79.1797 73.2559C79.2399 73.617 79.3367 73.9717 79.4184 74.3317ZM79.3786 80.044C79.5474 80.0065 79.7334 79.9926 79.8914 79.9208C79.9914 79.8758 80.1182 79.744 80.1193 79.6486C80.1343 78.5846 80.1429 77.5206 80.1193 76.4565C80.1064 75.8865 80.0204 75.8222 79.4356 75.6743C79.1228 76.3858 79.0421 79.4772 79.3775 80.0429L79.3786 80.044ZM81.9887 79.9551C81.4716 79.9176 81.0298 79.984 80.6331 80.2787C80.2719 80.5476 79.8602 80.6312 79.4248 80.5016C79.1303 80.4148 78.8422 80.3044 78.5562 80.1908C78.0338 79.984 77.549 80.0858 77.076 80.3494C78.7175 80.8305 80.3826 80.6462 82.0876 80.5766C82.0532 80.3601 82.0231 80.1747 81.9887 79.954V79.9551ZM80.5159 75.1278C79.9097 74.6521 79.0841 74.6682 78.6616 75.1278H80.5159Z" fill="#FEFAF1"/>
<path d="M72.1318 75.4547C72.2651 75.07 72.4199 74.6907 72.5221 74.2985C72.5747 74.0928 72.5715 73.8549 72.5253 73.646C72.4361 73.242 72.2985 72.8487 72.2286 72.3826C73.2853 72.7866 74.3216 72.5819 75.4557 72.4051C75.1364 73.5024 75.1827 74.4892 75.5181 75.5758C74.8849 75.4601 74.3539 75.2854 73.8239 75.2875C73.2864 75.2897 72.7489 75.4665 72.2114 75.5672L72.1329 75.4547H72.1318ZM74.585 73.1788H72.9886C73.0219 73.737 73.0542 74.2642 73.0843 74.7646H74.6559C74.6312 74.2278 74.6076 73.6974 74.5839 73.1788H74.585Z" fill="#FEFAF1"/>
<path d="M86.952 72.2937C86.8402 73.437 86.608 74.4742 87.1229 75.4697L87.0283 75.5597C86.5209 75.4236 86.0135 75.1804 85.5061 75.1804C84.9922 75.1804 84.4784 75.4204 83.8452 75.5865C84.1785 74.4474 84.0925 73.3995 83.8549 72.299C84.8794 72.6569 85.8748 72.7276 86.952 72.2926V72.2937ZM86.2403 74.7014C86.207 74.1774 86.1715 73.6342 86.1403 73.1423H84.6181C84.6472 73.6974 84.673 74.1999 84.6988 74.7014H86.2403Z" fill="#FEFAF1"/>
<path d="M83.8193 77.9257C84.9481 78.2375 85.9726 78.2107 87.0927 77.8314C86.7906 78.9961 86.7412 80.0462 87.0658 81.196C86.6229 81.062 86.2918 80.9827 85.9779 80.8606C85.5985 80.7127 85.234 80.6784 84.861 80.8627C84.804 80.8906 84.7406 80.9216 84.6793 80.9249C84.4299 80.9334 84.1795 80.9313 83.9301 80.9334C83.9505 80.7148 83.929 80.4812 84.001 80.2809C84.2085 79.7076 84.1881 79.1536 83.9806 78.59C83.9161 78.4153 83.8914 78.2268 83.8204 77.9257H83.8193ZM86.308 80.2059V78.7047H84.7331V80.3034C85.2405 80.2723 85.7511 80.2401 86.308 80.2059Z" fill="#FEFAF1"/>
<path d="M75.4247 77.9182C75.2291 79.055 75.1968 80.0923 75.5419 81.211C74.4218 80.9891 73.4253 80.8091 72.4524 81.3235C72.4137 81.2838 72.375 81.2431 72.3363 81.2035C72.4287 80.7898 72.4954 80.3687 72.6233 79.9669C72.7039 79.7119 72.7491 79.5179 72.5868 79.2618C72.361 78.904 72.246 78.4925 72.4062 78.0189C72.9071 78.1367 73.3898 78.3489 73.8671 78.336C74.3476 78.3243 74.8238 78.0896 75.4237 77.9182H75.4247ZM73.0297 78.7979C73.0673 79.2254 73.0985 79.6797 73.1544 80.1319C73.1651 80.2176 73.2694 80.3569 73.336 80.3602C73.8047 80.3805 74.2756 80.3709 74.7679 80.3709C74.7454 79.8694 74.7228 79.3401 74.6981 78.7989H73.0286L73.0297 78.7979Z" fill="#FEFAF1"/>
<path d="M76.6008 66.9371C76.5933 66.8504 76.5771 66.7507 76.5771 66.6521C76.5771 64.5562 76.5782 62.4603 76.5858 60.3644C76.5858 60.0697 76.6137 59.774 76.6427 59.4793C76.6965 58.9371 77.1705 58.4271 77.6629 58.3681C78.1606 58.3092 78.8626 58.7357 79.0088 59.2179C79.0937 59.4975 79.1023 59.8008 79.1851 60.0815C79.2184 60.193 79.3646 60.3537 79.4517 60.3494C79.643 60.3398 79.9247 60.4158 79.9784 60.0987C80.0128 59.8961 80.0354 59.6915 80.0612 59.4879C80.1623 58.7035 80.9406 58.1571 81.6963 58.4014C81.9435 58.4817 82.2263 58.7282 82.3133 58.965C82.4713 59.3893 82.553 59.8619 82.5627 60.3173C82.6089 62.3992 82.6165 64.4823 82.6444 66.5653C82.6476 66.7936 82.6089 66.9286 82.338 66.9307C80.4557 66.9425 78.5723 66.9639 76.69 66.98C76.6675 66.98 76.6449 66.9596 76.5997 66.9371H76.6008ZM79.0851 65.8667C79.4055 65.8292 79.5914 65.8345 79.757 65.7788C79.858 65.7445 79.9989 65.617 79.9989 65.5302C80.0042 64.3751 79.987 63.2189 79.9763 62.0638C79.9731 61.7649 79.757 61.7895 79.5656 61.8099C79.3754 61.8302 79.0851 61.7027 79.0851 62.0746C79.0851 63.3175 79.0851 64.5594 79.0851 65.8667ZM77.1705 66.4153H81.964V65.811C81.4813 65.8935 81.0405 65.9374 80.6159 66.0488C79.9064 66.2353 79.2184 66.2985 78.496 66.0681C78.0596 65.9288 77.5812 65.9235 77.0684 65.8506C77.1168 66.1206 77.1458 66.2814 77.1705 66.4164V66.4153ZM78.6175 60.8787C79.1217 61.257 79.8613 61.2302 80.3171 60.8787H78.6175Z" fill="#FEFAF1"/>
<path d="M75.428 58.5171C75.2302 59.609 75.084 60.6098 75.5011 61.7113C74.8647 61.5752 74.3681 61.3813 73.8747 61.3877C73.377 61.3941 72.8825 61.5988 72.2944 61.7381C72.3267 61.3781 72.2901 61.0566 72.3944 60.7887C72.5847 60.298 72.5406 59.8501 72.3708 59.3732C72.3009 59.1761 72.3342 58.9425 72.3213 58.726C72.5567 58.7282 72.8104 58.6735 73.0222 58.7443C73.549 58.92 74.051 58.9039 74.568 58.725C74.8078 58.6425 75.0625 58.6039 75.4291 58.5182L75.428 58.5171ZM74.6368 60.943V59.3229C74.0875 59.3497 73.5468 59.3754 73.0136 59.4011V60.943H74.6368Z" fill="#FEFAF1"/>
<path d="M72.1558 63.8276C72.5653 63.9144 72.8921 63.9583 73.2028 64.0547C73.6016 64.179 73.979 64.2037 74.3638 64.0129C74.5122 63.9401 74.6799 63.8994 74.8433 63.8683C75.2507 63.789 75.4216 63.969 75.3442 64.3816C75.3324 64.4448 75.3281 64.5166 75.2926 64.5659C74.9411 65.0652 75.012 65.5527 75.284 66.0639C75.3872 66.2578 75.3947 66.5032 75.4581 66.7796C75.1614 66.7796 74.9056 66.8193 74.6659 66.7721C73.9951 66.6393 73.3404 66.6264 72.6847 66.8514C72.575 66.8889 72.3525 66.8686 72.317 66.8032C72.2289 66.6382 72.1181 66.3564 72.1945 66.2557C72.6363 65.6695 72.5858 65.0898 72.302 64.4716C72.2299 64.314 72.2213 64.1276 72.1558 63.8276ZM74.6035 66.1506V64.5926H72.9964V66.1506H74.6035Z" fill="#FEFAF1"/>
<path d="M87.1323 61.5591C86.6582 61.4713 86.296 61.4477 85.967 61.3309C85.5198 61.1723 85.1178 61.2259 84.7071 61.4155C84.5115 61.5055 84.3061 61.5773 84.017 61.692C84.017 61.288 83.9439 60.9226 84.032 60.6022C84.2159 59.9304 84.1546 59.3153 83.8278 58.7121C83.7998 58.6606 83.802 58.5942 83.7676 58.4142C84.8533 58.7924 85.8939 58.8792 86.9313 58.4292L87.0151 58.5299C86.9076 59.0185 86.7066 59.5093 86.7195 59.9936C86.7324 60.4747 86.9614 60.9494 87.1323 61.5591ZM86.21 60.7973V59.2114H84.5523C84.6039 59.7289 84.6587 60.269 84.7125 60.7973H86.21Z" fill="#FEFAF1"/>
<path d="M83.9203 63.7708C84.905 63.9904 85.8811 63.9712 86.9486 63.6176C86.7927 64.7084 86.5465 65.7263 87.1367 66.7271C86.0294 66.5385 84.9738 66.3992 83.9429 66.9029C83.9128 66.8611 83.8827 66.8182 83.8526 66.7764C83.9665 66.381 84.0977 65.9888 84.188 65.5881C84.2278 65.4091 84.2235 65.2013 84.1751 65.0245C84.0687 64.628 83.9235 64.2412 83.7935 63.8501L83.9203 63.7708ZM86.2864 65.9535C86.2595 65.4649 86.2326 64.9623 86.2047 64.463H84.6062C84.632 65.0395 84.6567 65.5977 84.6803 66.1346C85.1834 66.0778 85.7134 66.0188 86.2864 65.9546V65.9535Z" fill="#FEFAF1"/>
<path d="M79.3784 80.0451C79.043 79.4794 79.1237 76.388 79.4365 75.6765C80.0213 75.8244 80.1073 75.8887 80.1202 76.4587C80.1438 77.5228 80.1342 78.5868 80.1202 79.6508C80.1191 79.7451 79.9923 79.8769 79.8923 79.923C79.7332 79.9948 79.5483 80.0087 79.3795 80.0462L79.3784 80.0451Z" fill="#3E3D3A"/>
<path d="M81.9889 79.9561C82.0244 80.1769 82.0534 80.3623 82.0878 80.5787C80.3829 80.6484 78.7177 80.8327 77.0762 80.3515C77.5502 80.0879 78.034 79.9862 78.5564 80.193C78.8424 80.3065 79.1305 80.4169 79.425 80.5037C79.8604 80.6323 80.2721 80.5498 80.6333 80.2808C81.03 79.9851 81.4718 79.9197 81.9889 79.9572V79.9561Z" fill="#3E3D3A"/>
<path d="M80.516 75.129H78.6616C79.0852 74.6693 79.9097 74.6532 80.516 75.129Z" fill="#3E3D3A"/>
<path d="M74.585 73.1798C74.6087 73.6984 74.6323 74.2288 74.6571 74.7657H73.0854C73.0553 74.2653 73.0231 73.7381 72.9897 73.1798H74.5861H74.585Z" fill="#3E3D3A"/>
<path d="M86.2403 74.7014H84.6988C84.673 74.1999 84.6461 73.6974 84.6182 73.1423H86.1404C86.1715 73.6352 86.207 74.1774 86.2403 74.7014Z" fill="#3E3D3A"/>
<path d="M86.3068 80.2059C85.75 80.2401 85.2393 80.2723 84.7319 80.3034V78.7047H86.3068V80.2059Z" fill="#3E3D3A"/>
<path d="M73.0293 78.7978H74.6988C74.7224 79.34 74.7461 79.8683 74.7686 80.3698C74.2763 80.3698 73.8054 80.3794 73.3367 80.359C73.2701 80.3558 73.1658 80.2165 73.1551 80.1308C73.0992 79.6786 73.068 79.2243 73.0304 78.7968L73.0293 78.7978Z" fill="#3E3D3A"/>
<path d="M79.0859 65.8667C79.0859 64.5594 79.0859 63.3175 79.0859 62.0745C79.0859 61.7027 79.3751 61.8313 79.5665 61.8099C79.7578 61.7895 79.975 61.7649 79.9771 62.0638C79.9879 63.2189 80.0051 64.3751 79.9997 65.5302C79.9997 65.617 79.8589 65.7445 79.7578 65.7788C79.5923 65.8345 79.4052 65.8292 79.0859 65.8667Z" fill="#3E3D3A"/>
<path d="M77.1715 66.4153C77.1467 66.2803 77.1177 66.1195 77.0693 65.8495C77.5821 65.9224 78.0605 65.9277 78.4969 66.067C79.2193 66.2974 79.9062 66.2342 80.6168 66.0478C81.0404 65.9363 81.4822 65.8924 81.9649 65.8099V66.4142H77.1715V66.4153Z" fill="#3E3D3A"/>
<path d="M78.6187 60.8787H80.3182C79.8614 61.2302 79.1228 61.257 78.6187 60.8787Z" fill="#3E3D3A"/>
<path d="M74.6369 60.943H73.0137V59.4011C73.5469 59.3754 74.0876 59.3497 74.6369 59.3229V60.943Z" fill="#3E3D3A"/>
<path d="M74.6032 66.1507H72.9961V64.5927H74.6032V66.1507Z" fill="#3E3D3A"/>
<path d="M86.2104 60.7962H84.7129C84.6602 60.269 84.6054 59.7279 84.5527 59.2103H86.2104V60.7962Z" fill="#3E3D3A"/>
<path d="M86.2867 65.9535C85.7148 66.0178 85.1837 66.0778 84.6806 66.1335C84.657 65.5977 84.6322 65.0384 84.6064 64.4619H86.205C86.2318 64.9612 86.2598 65.4638 86.2867 65.9524V65.9535Z" fill="#3E3D3A"/>
</svg>
